<?xml version="1.0" encoding="UTF-8" standalone="no"?>
<!DOCTYPE svg PUBLIC "-//W3C//DTD SVG 1.1//EN"
 "http://www.w3.org/Graphics/SVG/1.1/DTD/svg11.dtd">
<!-- Generated by graphviz version 2.43.0 (0)
 -->
<!-- Title: G Pages: 1 -->
<svg width="2437pt" height="2093pt"
 viewBox="0.00 0.00 2437.00 2092.50" xmlns="http://www.w3.org/2000/svg" xmlns:xlink="http://www.w3.org/1999/xlink">
<g id="graph0" class="graph" transform="scale(1 1) rotate(0) translate(4 2088.5)">
<title>G</title>
<polygon fill="#0a0a0a" stroke="transparent" points="-4,4 -4,-2088.5 2433,-2088.5 2433,4 -4,4"/>
<g id="clust1" class="cluster">
<title>cluster_rosbag</title>
<path fill="#1a1a1a" stroke="#555555" d="M860,-1976C860,-1976 2264,-1976 2264,-1976 2270,-1976 2276,-1982 2276,-1988 2276,-1988 2276,-2058 2276,-2058 2276,-2064 2270,-2070 2264,-2070 2264,-2070 860,-2070 860,-2070 854,-2070 848,-2064 848,-2058 848,-2058 848,-1988 848,-1988 848,-1982 854,-1976 860,-1976"/>
<text text-anchor="middle" x="1562" y="-2057.2" font-family="Times,serif" font-size="11.00" fill="#cccccc">📦 Rosbag Source (M3DGR Dynamic01)</text>
</g>
<g id="clust4" class="cluster">
<title>cluster_hub</title>
<path fill="#1a1a1a" stroke="#555555" d="M841,-1854C841,-1854 1640,-1854 1640,-1854 1646,-1854 1652,-1860 1652,-1866 1652,-1866 1652,-1934 1652,-1934 1652,-1940 1646,-1946 1640,-1946 1640,-1946 841,-1946 841,-1946 835,-1946 829,-1940 829,-1934 829,-1934 829,-1866 829,-1866 829,-1860 835,-1854 841,-1854"/>
<text text-anchor="middle" x="1240.5" y="-1933.2" font-family="Times,serif" font-size="11.00" fill="#cccccc">🔧 gc_sensor_hub (Single Process)</text>
</g>
<g id="clust6" class="cluster">
<title>cluster_canon</title>
<path fill="#0f2a0f" stroke="#33aa33" d="M1051,-1732C1051,-1732 1577,-1732 1577,-1732 1583,-1732 1589,-1738 1589,-1744 1589,-1744 1589,-1812 1589,-1812 1589,-1818 1583,-1824 1577,-1824 1577,-1824 1051,-1824 1051,-1824 1045,-1824 1039,-1818 1039,-1812 1039,-1812 1039,-1744 1039,-1744 1039,-1738 1045,-1732 1051,-1732"/>
<text text-anchor="middle" x="1314" y="-1811.2" font-family="Times,serif" font-size="11.00" fill="#cccccc">📡 Canonical Topics (/gc/sensors/*)</text>
</g>
<g id="clust8" class="cluster">
<title>cluster_state</title>
<path fill="#0a0a1a" stroke="#444466" d="M757,-678C757,-678 1399,-678 1399,-678 1405,-678 1411,-684 1411,-690 1411,-690 1411,-760 1411,-760 1411,-766 1405,-772 1399,-772 1399,-772 757,-772 757,-772 751,-772 745,-766 745,-760 745,-760 745,-690 745,-690 745,-684 751,-678 757,-678"/>
<text text-anchor="middle" x="1078" y="-759.2" font-family="Times,serif" font-size="11.00" fill="#cccccc">💾 State Storage</text>
</g>
<g id="clust10" class="cluster">
<title>cluster_imu_buf</title>
<path fill="#0a1a0a" stroke="#336633" d="M1202,-1433C1202,-1433 1332,-1433 1332,-1433 1338,-1433 1344,-1439 1344,-1445 1344,-1445 1344,-1525 1344,-1525 1344,-1531 1338,-1537 1332,-1537 1332,-1537 1202,-1537 1202,-1537 1196,-1537 1190,-1531 1190,-1525 1190,-1525 1190,-1445 1190,-1445 1190,-1439 1196,-1433 1202,-1433"/>
<text text-anchor="middle" x="1267" y="-1524.2" font-family="Times,serif" font-size="11.00" fill="#cccccc">📥 IMU Buffer</text>
</g>
<g id="clust11" class="cluster">
<title>cluster_pipeline</title>
<path fill="#1a1a2a" stroke="#666666" d="M20,-8C20,-8 725,-8 725,-8 731,-8 737,-14 737,-20 737,-20 737,-1676 737,-1676 737,-1682 731,-1688 725,-1688 725,-1688 20,-1688 20,-1688 14,-1688 8,-1682 8,-1676 8,-1676 8,-20 8,-20 8,-14 14,-8 20,-8"/>
<text text-anchor="middle" x="372.5" y="-1675.2" font-family="Times,serif" font-size="11.00" fill="#cccccc">🧠 gc_backend_node &#45; Pipeline (14 Steps × 8 Hypotheses)</text>
</g>
<g id="clust12" class="cluster">
<title>cluster_preproc</title>
<path fill="#1a2a1a" stroke="#44aa44" d="M595,-1298C595,-1298 717,-1298 717,-1298 723,-1298 729,-1304 729,-1310 729,-1310 729,-1647 729,-1647 729,-1653 723,-1659 717,-1659 717,-1659 595,-1659 595,-1659 589,-1659 583,-1653 583,-1647 583,-1647 583,-1310 583,-1310 583,-1304 589,-1298 595,-1298"/>
<text text-anchor="middle" x="656" y="-1647" font-family="Times,serif" font-size="10.00" fill="#cccccc">Preprocessing</text>
</g>
<g id="clust13" class="cluster">
<title>cluster_binning</title>
<path fill="#1a2a1a" stroke="#44aa44" d="M322,-678C322,-678 458,-678 458,-678 464,-678 470,-684 470,-690 470,-690 470,-1256 470,-1256 470,-1262 464,-1268 458,-1268 458,-1268 322,-1268 322,-1268 316,-1268 310,-1262 310,-1256 310,-1256 310,-690 310,-690 310,-684 316,-678 322,-678"/>
<text text-anchor="middle" x="390" y="-1256" font-family="Times,serif" font-size="10.00" fill="#cccccc">Binning &amp; Pose Estimation</text>
</g>
<g id="clust14" class="cluster">
<title>cluster_evidence</title>
<path fill="#1a2a3a" stroke="#4488aa" d="M28,-540C28,-540 717,-540 717,-540 723,-540 729,-546 729,-552 729,-552 729,-620 729,-620 729,-626 723,-632 717,-632 717,-632 28,-632 28,-632 22,-632 16,-626 16,-620 16,-620 16,-552 16,-552 16,-546 22,-540 28,-540"/>
<text text-anchor="middle" x="372.5" y="-620" font-family="Times,serif" font-size="10.00" fill="#cccccc">Evidence Generation (Parallel)</text>
</g>
<g id="clust16" class="cluster">
<title>cluster_fusion</title>
<path fill="#1a2a1a" stroke="#44aa44" d="M502,-16C502,-16 674,-16 674,-16 680,-16 686,-22 686,-28 686,-28 686,-498 686,-498 686,-504 680,-510 674,-510 674,-510 502,-510 502,-510 496,-510 490,-504 490,-498 490,-498 490,-28 490,-28 490,-22 496,-16 502,-16"/>
<text text-anchor="middle" x="588" y="-498" font-family="Times,serif" font-size="10.00" fill="#cccccc">Fusion &amp; State Update</text>
</g>
<g id="clust17" class="cluster">
<title>cluster_hypo</title>
<path fill="#2a1a1a" stroke="#aa4444" d="M1091,-816C1091,-816 1230,-816 1230,-816 1236,-816 1242,-822 1242,-828 1242,-828 1242,-898 1242,-898 1242,-904 1236,-910 1230,-910 1230,-910 1091,-910 1091,-910 1085,-910 1079,-904 1079,-898 1079,-898 1079,-828 1079,-828 1079,-822 1085,-816 1091,-816"/>
<text text-anchor="middle" x="1160.5" y="-897.2" font-family="Times,serif" font-size="11.00" fill="#cccccc">🔄 Hypothesis Barycenter</text>
</g>
<g id="clust18" class="cluster">
<title>cluster_out</title>
<path fill="#0a1a2a" stroke="#444466" d="M1261,-540C1261,-540 2216,-540 2216,-540 2222,-540 2228,-546 2228,-552 2228,-552 2228,-622 2228,-622 2228,-628 2222,-634 2216,-634 2216,-634 1261,-634 1261,-634 1255,-634 1249,-628 1249,-622 1249,-622 1249,-552 1249,-552 1249,-546 1255,-540 1261,-540"/>
<text text-anchor="middle" x="1738.5" y="-621.2" font-family="Times,serif" font-size="11.00" fill="#cccccc">📤 Outputs</text>
</g>
<g id="clust22" class="cluster">
<title>cluster_legend</title>
<path fill="#111111" stroke="#333333" d="M2299,-541C2299,-541 2409,-541 2409,-541 2415,-541 2421,-547 2421,-553 2421,-553 2421,-1377 2421,-1377 2421,-1383 2415,-1389 2409,-1389 2409,-1389 2299,-1389 2299,-1389 2293,-1389 2287,-1383 2287,-1377 2287,-1377 2287,-553 2287,-553 2287,-547 2293,-541 2299,-541"/>
<text text-anchor="middle" x="2354" y="-1377" font-family="Times,serif" font-size="10.00" fill="#888888">Legend</text>
</g>
<!-- BAG_VRPN -->
<g id="node1" class="node">
<title>BAG_VRPN</title>
<path fill="#2a0e0e" stroke="#ff4444" stroke-dasharray="5,2" d="M1900,-2021C1900,-2021 1790,-2021 1790,-2021 1784,-2021 1778,-2015 1778,-2009 1778,-2009 1778,-1997 1778,-1997 1778,-1991 1784,-1985 1790,-1985 1790,-1985 1900,-1985 1900,-1985 1906,-1985 1912,-1991 1912,-1997 1912,-1997 1912,-2009 1912,-2009 1912,-2015 1906,-2021 1900,-2021"/>
<text text-anchor="middle" x="1845" y="-2005.8" font-family="Arial" font-size="9.00" fill="#ffcccc">/vrpn_client_node/UGV/pose</text>
<text text-anchor="middle" x="1845" y="-1995.8" font-family="Arial" font-size="9.00" fill="#ffcccc">(Ground Truth)</text>
</g>
<!-- BAG_CAM_IMU -->
<g id="node2" class="node">
<title>BAG_CAM_IMU</title>
<path fill="#2a0e0e" stroke="#ff4444" stroke-dasharray="5,2" d="M2024.5,-2021C2024.5,-2021 1981.5,-2021 1981.5,-2021 1975.5,-2021 1969.5,-2015 1969.5,-2009 1969.5,-2009 1969.5,-1997 1969.5,-1997 1969.5,-1991 1975.5,-1985 1981.5,-1985 1981.5,-1985 2024.5,-1985 2024.5,-1985 2030.5,-1985 2036.5,-1991 2036.5,-1997 2036.5,-1997 2036.5,-2009 2036.5,-2009 2036.5,-2015 2030.5,-2021 2024.5,-2021"/>
<text text-anchor="middle" x="2003" y="-2000.8" font-family="Arial" font-size="9.00" fill="#ffcccc">/camera/imu</text>
</g>
<!-- BAG_VRPN&#45;&gt;BAG_CAM_IMU -->
<!-- DEAD_AUDIT -->
<g id="node13" class="node">
<title>DEAD_AUDIT</title>
<path fill="#2d004d" stroke="#aa00aa" d="M1631.5,-1898C1631.5,-1898 1552.5,-1898 1552.5,-1898 1546.5,-1898 1540.5,-1892 1540.5,-1886 1540.5,-1886 1540.5,-1874 1540.5,-1874 1540.5,-1868 1546.5,-1862 1552.5,-1862 1552.5,-1862 1631.5,-1862 1631.5,-1862 1637.5,-1862 1643.5,-1868 1643.5,-1874 1643.5,-1874 1643.5,-1886 1643.5,-1886 1643.5,-1892 1637.5,-1898 1631.5,-1898"/>
<text text-anchor="middle" x="1592" y="-1882.8" font-family="Arial" font-size="9.00" fill="#ffffff">dead_end_audit</text>
<text text-anchor="middle" x="1592" y="-1872.8" font-family="Arial" font-size="9.00" fill="#ffffff">Tracks unused topics</text>
</g>
<!-- BAG_VRPN&#45;&gt;DEAD_AUDIT -->
<g id="edge57" class="edge">
<title>BAG_VRPN&#45;&gt;DEAD_AUDIT</title>
<path fill="none" stroke="#ff4444" stroke-width="1.5" stroke-dasharray="5,2" d="M1809.29,-1984.92C1764.12,-1963.32 1686.3,-1926.1 1637.08,-1902.56"/>
<polygon fill="#ff4444" stroke="#ff4444" stroke-width="1.5" points="1638.47,-1899.35 1627.94,-1898.19 1635.45,-1905.66 1638.47,-1899.35"/>
</g>
<!-- BAG_CAM_COLOR -->
<g id="node3" class="node">
<title>BAG_CAM_COLOR</title>
<path fill="#2a0e0e" stroke="#ff4444" stroke-dasharray="5,2" d="M2255.5,-2021C2255.5,-2021 2106.5,-2021 2106.5,-2021 2100.5,-2021 2094.5,-2015 2094.5,-2009 2094.5,-2009 2094.5,-1997 2094.5,-1997 2094.5,-1991 2100.5,-1985 2106.5,-1985 2106.5,-1985 2255.5,-1985 2255.5,-1985 2261.5,-1985 2267.5,-1991 2267.5,-1997 2267.5,-1997 2267.5,-2009 2267.5,-2009 2267.5,-2015 2261.5,-2021 2255.5,-2021"/>
<text text-anchor="middle" x="2181" y="-2000.8" font-family="Arial" font-size="9.00" fill="#ffcccc">/camera/color/image_raw/compressed</text>
</g>
<!-- BAG_CAM_IMU&#45;&gt;BAG_CAM_COLOR -->
<!-- BAG_CAM_IMU&#45;&gt;DEAD_AUDIT -->
<g id="edge58" class="edge">
<title>BAG_CAM_IMU&#45;&gt;DEAD_AUDIT</title>
<path fill="none" stroke="#ff4444" stroke-width="1.5" stroke-dasharray="5,2" d="M1969.44,-1990.52C1949.08,-1983.56 1927,-1976 1927,-1976 1927,-1976 1749.95,-1925.79 1653.28,-1898.38"/>
<polygon fill="#ff4444" stroke="#ff4444" stroke-width="1.5" points="1654.19,-1895 1643.61,-1895.64 1652.28,-1901.73 1654.19,-1895"/>
</g>
<!-- BAG_CAM_DEPTH -->
<g id="node4" class="node">
<title>BAG_CAM_DEPTH</title>
<path fill="#2a0e0e" stroke="#ff4444" stroke-dasharray="5,2" d="M1470.5,-2021C1470.5,-2021 1219.5,-2021 1219.5,-2021 1213.5,-2021 1207.5,-2015 1207.5,-2009 1207.5,-2009 1207.5,-1997 1207.5,-1997 1207.5,-1991 1213.5,-1985 1219.5,-1985 1219.5,-1985 1470.5,-1985 1470.5,-1985 1476.5,-1985 1482.5,-1991 1482.5,-1997 1482.5,-1997 1482.5,-2009 1482.5,-2009 1482.5,-2015 1476.5,-2021 1470.5,-2021"/>
<text text-anchor="middle" x="1345" y="-2000.8" font-family="Arial" font-size="9.00" fill="#ffcccc">/camera/aligned_depth_to_color/image_raw/compressedDepth</text>
</g>
<!-- BAG_CAM_COLOR&#45;&gt;BAG_CAM_DEPTH -->
<!-- BAG_CAM_COLOR&#45;&gt;DEAD_AUDIT -->
<g id="edge59" class="edge">
<title>BAG_CAM_COLOR&#45;&gt;DEAD_AUDIT</title>
<path fill="none" stroke="#ff4444" stroke-width="1.5" stroke-dasharray="5,2" d="M2098.17,-1984.98C1978.61,-1960.42 1760.36,-1915.59 1653.82,-1893.7"/>
<polygon fill="#ff4444" stroke="#ff4444" stroke-width="1.5" points="1654.37,-1890.24 1643.87,-1891.66 1652.96,-1897.1 1654.37,-1890.24"/>
</g>
<!-- BAG_AVIA_LIDAR -->
<g id="node5" class="node">
<title>BAG_AVIA_LIDAR</title>
<path fill="#2a0e0e" stroke="#ff4444" stroke-dasharray="5,2" d="M1605.5,-2021C1605.5,-2021 1552.5,-2021 1552.5,-2021 1546.5,-2021 1540.5,-2015 1540.5,-2009 1540.5,-2009 1540.5,-1997 1540.5,-1997 1540.5,-1991 1546.5,-1985 1552.5,-1985 1552.5,-1985 1605.5,-1985 1605.5,-1985 1611.5,-1985 1617.5,-1991 1617.5,-1997 1617.5,-1997 1617.5,-2009 1617.5,-2009 1617.5,-2015 1611.5,-2021 1605.5,-2021"/>
<text text-anchor="middle" x="1579" y="-2000.8" font-family="Arial" font-size="9.00" fill="#ffcccc">/livox/avia/lidar</text>
</g>
<!-- BAG_CAM_DEPTH&#45;&gt;BAG_AVIA_LIDAR -->
<!-- BAG_CAM_DEPTH&#45;&gt;DEAD_AUDIT -->
<g id="edge60" class="edge">
<title>BAG_CAM_DEPTH&#45;&gt;DEAD_AUDIT</title>
<path fill="none" stroke="#ff4444" stroke-width="1.5" stroke-dasharray="5,2" d="M1400.29,-1984.89C1453.52,-1968.43 1526,-1946 1526,-1946 1526,-1946 1548.68,-1923.66 1567.45,-1905.17"/>
<polygon fill="#ff4444" stroke="#ff4444" stroke-width="1.5" points="1569.99,-1907.59 1574.66,-1898.08 1565.08,-1902.6 1569.99,-1907.59"/>
</g>
<!-- BAG_AVIA_IMU -->
<g id="node6" class="node">
<title>BAG_AVIA_IMU</title>
<path fill="#2a0e0e" stroke="#ff4444" stroke-dasharray="5,2" d="M1737,-2021C1737,-2021 1687,-2021 1687,-2021 1681,-2021 1675,-2015 1675,-2009 1675,-2009 1675,-1997 1675,-1997 1675,-1991 1681,-1985 1687,-1985 1687,-1985 1737,-1985 1737,-1985 1743,-1985 1749,-1991 1749,-1997 1749,-1997 1749,-2009 1749,-2009 1749,-2015 1743,-2021 1737,-2021"/>
<text text-anchor="middle" x="1712" y="-2000.8" font-family="Arial" font-size="9.00" fill="#ffcccc">/livox/avia/imu</text>
</g>
<!-- BAG_AVIA_LIDAR&#45;&gt;BAG_AVIA_IMU -->
<!-- BAG_AVIA_LIDAR&#45;&gt;DEAD_AUDIT -->
<g id="edge61" class="edge">
<title>BAG_AVIA_LIDAR&#45;&gt;DEAD_AUDIT</title>
<path fill="none" stroke="#ff4444" stroke-width="1.5" stroke-dasharray="5,2" d="M1580.84,-1984.92C1582.97,-1965.04 1586.53,-1931.92 1589.05,-1908.42"/>
<polygon fill="#ff4444" stroke="#ff4444" stroke-width="1.5" points="1592.54,-1908.7 1590.13,-1898.38 1585.58,-1907.95 1592.54,-1908.7"/>
</g>
<!-- BAG_ODOM -->
<g id="node7" class="node">
<title>BAG_ODOM</title>
<path fill="#0f3d0f" stroke="#00ff00" d="M1166,-2022C1166,-2022 1134,-2022 1134,-2022 1128,-2022 1122,-2016 1122,-2010 1122,-2010 1122,-1996 1122,-1996 1122,-1990 1128,-1984 1134,-1984 1134,-1984 1166,-1984 1166,-1984 1172,-1984 1178,-1990 1178,-1996 1178,-1996 1178,-2010 1178,-2010 1178,-2016 1172,-2022 1166,-2022"/>
<text text-anchor="middle" x="1150" y="-2010.8" font-family="Arial" font-size="9.00" fill="#ffffff">/odom</text>
<text text-anchor="middle" x="1150" y="-2000.8" font-family="Arial" font-size="9.00" fill="#ffffff">Odometry</text>
<text text-anchor="middle" x="1150" y="-1990.8" font-family="Arial" font-size="9.00" fill="#ffffff">(1 Hz)</text>
</g>
<!-- BAG_AVIA_IMU&#45;&gt;BAG_ODOM -->
<!-- BAG_AVIA_IMU&#45;&gt;DEAD_AUDIT -->
<g id="edge62" class="edge">
<title>BAG_AVIA_IMU&#45;&gt;DEAD_AUDIT</title>
<path fill="none" stroke="#ff4444" stroke-width="1.5" stroke-dasharray="5,2" d="M1695.06,-1984.92C1674.54,-1964.23 1639.82,-1929.22 1616.41,-1905.61"/>
<polygon fill="#ff4444" stroke="#ff4444" stroke-width="1.5" points="1618.77,-1903.02 1609.24,-1898.38 1613.8,-1907.95 1618.77,-1903.02"/>
</g>
<!-- BAG_MID_LIDAR -->
<g id="node8" class="node">
<title>BAG_MID_LIDAR</title>
<path fill="#0f3d0f" stroke="#00ff00" d="M935.5,-2022C935.5,-2022 868.5,-2022 868.5,-2022 862.5,-2022 856.5,-2016 856.5,-2010 856.5,-2010 856.5,-1996 856.5,-1996 856.5,-1990 862.5,-1984 868.5,-1984 868.5,-1984 935.5,-1984 935.5,-1984 941.5,-1984 947.5,-1990 947.5,-1996 947.5,-1996 947.5,-2010 947.5,-2010 947.5,-2016 941.5,-2022 935.5,-2022"/>
<text text-anchor="middle" x="902" y="-2010.8" font-family="Arial" font-size="9.00" fill="#ffffff">/livox/mid360/lidar</text>
<text text-anchor="middle" x="902" y="-2000.8" font-family="Arial" font-size="9.00" fill="#ffffff">CustomMsg</text>
<text text-anchor="middle" x="902" y="-1990.8" font-family="Arial" font-size="9.00" fill="#ffffff">(10 Hz)</text>
</g>
<!-- BAG_ODOM&#45;&gt;BAG_MID_LIDAR -->
<!-- ODOM_NORM -->
<g id="node11" class="node">
<title>ODOM_NORM</title>
<path fill="#0f3d0f" stroke="#00ff00" d="M1499,-1898C1499,-1898 1335,-1898 1335,-1898 1329,-1898 1323,-1892 1323,-1886 1323,-1886 1323,-1874 1323,-1874 1323,-1868 1329,-1862 1335,-1862 1335,-1862 1499,-1862 1499,-1862 1505,-1862 1511,-1868 1511,-1874 1511,-1874 1511,-1886 1511,-1886 1511,-1892 1505,-1898 1499,-1898"/>
<text text-anchor="middle" x="1417" y="-1882.8" font-family="Arial" font-size="9.00" fill="#ffffff">odom_normalizer</text>
<text text-anchor="middle" x="1417" y="-1872.8" font-family="Arial" font-size="9.00" fill="#ffffff">Frame: odom_combined → base_footprint</text>
</g>
<!-- BAG_ODOM&#45;&gt;ODOM_NORM -->
<g id="edge54" class="edge">
<title>BAG_ODOM&#45;&gt;ODOM_NORM</title>
<path fill="none" stroke="#00ff00" stroke-width="3" d="M1178.44,-1984.8C1186.44,-1979.97 1193,-1976 1193,-1976 1193,-1976 1308,-1946 1308,-1946 1308,-1946 1348.16,-1922.05 1379.73,-1903.23"/>
<polygon fill="#00ff00" stroke="#00ff00" stroke-width="3" points="1381.57,-1906.21 1388.36,-1898.08 1377.98,-1900.19 1381.57,-1906.21"/>
</g>
<!-- BAG_MID_IMU -->
<g id="node9" class="node">
<title>BAG_MID_IMU</title>
<path fill="#0f3d0f" stroke="#00ff00" d="M1081,-2022C1081,-2022 1017,-2022 1017,-2022 1011,-2022 1005,-2016 1005,-2010 1005,-2010 1005,-1996 1005,-1996 1005,-1990 1011,-1984 1017,-1984 1017,-1984 1081,-1984 1081,-1984 1087,-1984 1093,-1990 1093,-1996 1093,-1996 1093,-2010 1093,-2010 1093,-2016 1087,-2022 1081,-2022"/>
<text text-anchor="middle" x="1049" y="-2010.8" font-family="Arial" font-size="9.00" fill="#ffffff">/livox/mid360/imu</text>
<text text-anchor="middle" x="1049" y="-2000.8" font-family="Arial" font-size="9.00" fill="#ffffff">Imu</text>
<text text-anchor="middle" x="1049" y="-1990.8" font-family="Arial" font-size="9.00" fill="#ffffff">(200 Hz)</text>
</g>
<!-- BAG_MID_LIDAR&#45;&gt;BAG_MID_IMU -->
<!-- LIVOX_CONV -->
<g id="node10" class="node">
<title>LIVOX_CONV</title>
<path fill="#0f3d0f" stroke="#00ff00" d="M955,-1898C955,-1898 849,-1898 849,-1898 843,-1898 837,-1892 837,-1886 837,-1886 837,-1874 837,-1874 837,-1868 843,-1862 849,-1862 849,-1862 955,-1862 955,-1862 961,-1862 967,-1868 967,-1874 967,-1874 967,-1886 967,-1886 967,-1892 961,-1898 955,-1898"/>
<text text-anchor="middle" x="902" y="-1882.8" font-family="Arial" font-size="9.00" fill="#ffffff">livox_converter</text>
<text text-anchor="middle" x="902" y="-1872.8" font-family="Arial" font-size="9.00" fill="#ffffff">CustomMsg → PointCloud2</text>
</g>
<!-- BAG_MID_LIDAR&#45;&gt;LIVOX_CONV -->
<g id="edge55" class="edge">
<title>BAG_MID_LIDAR&#45;&gt;LIVOX_CONV</title>
<path fill="none" stroke="#00ff00" stroke-width="3" d="M902,-1983.89C902,-1963.85 902,-1931.36 902,-1908.25"/>
<polygon fill="#00ff00" stroke="#00ff00" stroke-width="3" points="905.5,-1908.06 902,-1898.06 898.5,-1908.06 905.5,-1908.06"/>
</g>
<!-- IMU_NORM -->
<g id="node12" class="node">
<title>IMU_NORM</title>
<path fill="#0f3d0f" stroke="#00ff00" d="M1281.5,-1898C1281.5,-1898 1210.5,-1898 1210.5,-1898 1204.5,-1898 1198.5,-1892 1198.5,-1886 1198.5,-1886 1198.5,-1874 1198.5,-1874 1198.5,-1868 1204.5,-1862 1210.5,-1862 1210.5,-1862 1281.5,-1862 1281.5,-1862 1287.5,-1862 1293.5,-1868 1293.5,-1874 1293.5,-1874 1293.5,-1886 1293.5,-1886 1293.5,-1892 1287.5,-1898 1281.5,-1898"/>
<text text-anchor="middle" x="1246" y="-1882.8" font-family="Arial" font-size="9.00" fill="#ffffff">imu_normalizer</text>
<text text-anchor="middle" x="1246" y="-1872.8" font-family="Arial" font-size="9.00" fill="#ffffff">Frame: livox_frame</text>
</g>
<!-- BAG_MID_IMU&#45;&gt;IMU_NORM -->
<g id="edge56" class="edge">
<title>BAG_MID_IMU&#45;&gt;IMU_NORM</title>
<path fill="none" stroke="#00ff00" stroke-width="3" d="M1078.49,-1983.89C1113.47,-1962.4 1171.78,-1926.59 1209.55,-1903.39"/>
<polygon fill="#00ff00" stroke="#00ff00" stroke-width="3" points="1211.53,-1906.28 1218.22,-1898.06 1207.87,-1900.32 1211.53,-1906.28"/>
</g>
<!-- LIVOX_CONV&#45;&gt;IMU_NORM -->
<!-- CAN_LIDAR -->
<g id="node15" class="node">
<title>CAN_LIDAR</title>
<path fill="#0f3d0f" stroke="#00ff00" d="M1160.5,-1776C1160.5,-1776 1059.5,-1776 1059.5,-1776 1053.5,-1776 1047.5,-1770 1047.5,-1764 1047.5,-1764 1047.5,-1752 1047.5,-1752 1047.5,-1746 1053.5,-1740 1059.5,-1740 1059.5,-1740 1160.5,-1740 1160.5,-1740 1166.5,-1740 1172.5,-1746 1172.5,-1752 1172.5,-1752 1172.5,-1764 1172.5,-1764 1172.5,-1770 1166.5,-1776 1160.5,-1776"/>
<text text-anchor="middle" x="1110" y="-1760.8" font-family="Arial" font-size="9.00" fill="#ffffff">/gc/sensors/lidar_points</text>
<text text-anchor="middle" x="1110" y="-1750.8" font-family="Arial" font-size="9.00" fill="#ffffff">sensor_msgs/PointCloud2</text>
</g>
<!-- LIVOX_CONV&#45;&gt;CAN_LIDAR -->
<g id="edge64" class="edge">
<title>LIVOX_CONV&#45;&gt;CAN_LIDAR</title>
<path fill="none" stroke="#00ff00" stroke-width="3" d="M931.8,-1861.81C968.56,-1840.6 1031.13,-1804.5 1071.5,-1781.21"/>
<polygon fill="#00ff00" stroke="#00ff00" stroke-width="3" points="1073.34,-1784.19 1080.25,-1776.16 1069.84,-1778.13 1073.34,-1784.19"/>
</g>
<!-- ODOM_NORM&#45;&gt;LIVOX_CONV -->
<!-- CAN_ODOM -->
<g id="node14" class="node">
<title>CAN_ODOM</title>
<path fill="#0f3d0f" stroke="#00ff00" d="M1437.5,-1776C1437.5,-1776 1360.5,-1776 1360.5,-1776 1354.5,-1776 1348.5,-1770 1348.5,-1764 1348.5,-1764 1348.5,-1752 1348.5,-1752 1348.5,-1746 1354.5,-1740 1360.5,-1740 1360.5,-1740 1437.5,-1740 1437.5,-1740 1443.5,-1740 1449.5,-1746 1449.5,-1752 1449.5,-1752 1449.5,-1764 1449.5,-1764 1449.5,-1770 1443.5,-1776 1437.5,-1776"/>
<text text-anchor="middle" x="1399" y="-1760.8" font-family="Arial" font-size="9.00" fill="#ffffff">/gc/sensors/odom</text>
<text text-anchor="middle" x="1399" y="-1750.8" font-family="Arial" font-size="9.00" fill="#ffffff">nav_msgs/Odometry</text>
</g>
<!-- ODOM_NORM&#45;&gt;CAN_ODOM -->
<g id="edge63" class="edge">
<title>ODOM_NORM&#45;&gt;CAN_ODOM</title>
<path fill="none" stroke="#00ff00" stroke-width="3" d="M1414.42,-1861.81C1411.45,-1842.02 1406.54,-1809.29 1403.06,-1786.08"/>
<polygon fill="#00ff00" stroke="#00ff00" stroke-width="3" points="1406.52,-1785.53 1401.57,-1776.16 1399.6,-1786.57 1406.52,-1785.53"/>
</g>
<!-- IMU_NORM&#45;&gt;DEAD_AUDIT -->
<!-- CAN_IMU -->
<g id="node16" class="node">
<title>CAN_IMU</title>
<path fill="#0f3d0f" stroke="#00ff00" d="M1307.5,-1776C1307.5,-1776 1242.5,-1776 1242.5,-1776 1236.5,-1776 1230.5,-1770 1230.5,-1764 1230.5,-1764 1230.5,-1752 1230.5,-1752 1230.5,-1746 1236.5,-1740 1242.5,-1740 1242.5,-1740 1307.5,-1740 1307.5,-1740 1313.5,-1740 1319.5,-1746 1319.5,-1752 1319.5,-1752 1319.5,-1764 1319.5,-1764 1319.5,-1770 1313.5,-1776 1307.5,-1776"/>
<text text-anchor="middle" x="1275" y="-1760.8" font-family="Arial" font-size="9.00" fill="#ffffff">/gc/sensors/imu</text>
<text text-anchor="middle" x="1275" y="-1750.8" font-family="Arial" font-size="9.00" fill="#ffffff">sensor_msgs/Imu</text>
</g>
<!-- IMU_NORM&#45;&gt;CAN_IMU -->
<g id="edge65" class="edge">
<title>IMU_NORM&#45;&gt;CAN_IMU</title>
<path fill="none" stroke="#00ff00" stroke-width="3" d="M1250.15,-1861.81C1254.94,-1842.02 1262.85,-1809.29 1268.46,-1786.08"/>
<polygon fill="#00ff00" stroke="#00ff00" stroke-width="3" points="1271.91,-1786.7 1270.85,-1776.16 1265.1,-1785.06 1271.91,-1786.7"/>
</g>
<!-- CAN_DEAD -->
<g id="node17" class="node">
<title>CAN_DEAD</title>
<path fill="#2d004d" stroke="#aa00aa" d="M1569,-1776C1569,-1776 1491,-1776 1491,-1776 1485,-1776 1479,-1770 1479,-1764 1479,-1764 1479,-1752 1479,-1752 1479,-1746 1485,-1740 1491,-1740 1491,-1740 1569,-1740 1569,-1740 1575,-1740 1581,-1746 1581,-1752 1581,-1752 1581,-1764 1581,-1764 1581,-1770 1575,-1776 1569,-1776"/>
<text text-anchor="middle" x="1530" y="-1760.8" font-family="Arial" font-size="9.00" fill="#ffffff">/gc/dead_end_status</text>
<text text-anchor="middle" x="1530" y="-1750.8" font-family="Arial" font-size="9.00" fill="#ffffff">JSON</text>
</g>
<!-- DEAD_AUDIT&#45;&gt;CAN_DEAD -->
<g id="edge66" class="edge">
<title>DEAD_AUDIT&#45;&gt;CAN_DEAD</title>
<path fill="none" stroke="#aa00aa" stroke-width="2" d="M1583.12,-1861.81C1572.76,-1841.76 1555.52,-1808.4 1543.51,-1785.14"/>
<polygon fill="#aa00aa" stroke="#aa00aa" stroke-width="2" points="1546.57,-1783.44 1538.87,-1776.16 1540.35,-1786.65 1546.57,-1783.44"/>
</g>
<!-- CAN_ODOM&#45;&gt;CAN_LIDAR -->
<!-- S09A -->
<g id="node32" class="node">
<title>S09A</title>
<path fill="#2a4a6a" stroke="#00ccff" d="M329,-586C329,-586 207,-586 207,-586 201,-586 195,-580 195,-574 195,-574 195,-560 195,-560 195,-554 201,-548 207,-548 207,-548 329,-548 329,-548 335,-548 341,-554 341,-560 341,-560 341,-574 341,-574 341,-580 335,-586 329,-586"/>
<text text-anchor="middle" x="268" y="-574.8" font-family="Arial" font-size="9.00" fill="#ffffff">S09a: OdomQuadraticEvidence</text>
<text text-anchor="middle" x="268" y="-564.8" font-family="Arial" font-size="9.00" fill="#ffffff">Gaussian SE(3) pose</text>
<text text-anchor="middle" x="268" y="-554.8" font-family="Arial" font-size="9.00" fill="#ffffff">(Closed&#45;form)</text>
</g>
<!-- CAN_ODOM&#45;&gt;S09A -->
<g id="edge67" class="edge">
<title>CAN_ODOM&#45;&gt;S09A</title>
<path fill="none" stroke="#00ff00" stroke-width="2" d="M1399.21,-1739.97C1399.72,-1698.38 1401,-1595 1401,-1595 1401,-1595 1401,-1595 1401,-1091 1401,-1091 1382,-1029 1382,-1029 1382,-1029 565,-795 565,-795 565,-795 517,-772 517,-772 517,-772 474,-678 474,-678 474,-678 356,-634 356,-634 356,-634 325.41,-611.06 300.3,-592.22"/>
<polygon fill="#00ff00" stroke="#00ff00" stroke-width="2" points="302.15,-589.23 292.05,-586.03 297.95,-594.83 302.15,-589.23"/>
<text text-anchor="middle" x="1455.5" y="-1143.8" font-family="Times,serif" font-size="14.00">Odom pose/cov</text>
</g>
<!-- CAN_LIDAR&#45;&gt;CAN_IMU -->
<!-- S01 -->
<g id="node24" class="node">
<title>S01</title>
<path fill="#2a4a2a" stroke="#00ff00" d="M709,-1613C709,-1613 603,-1613 603,-1613 597,-1613 591,-1607 591,-1601 591,-1601 591,-1587 591,-1587 591,-1581 597,-1575 603,-1575 603,-1575 709,-1575 709,-1575 715,-1575 721,-1581 721,-1587 721,-1587 721,-1601 721,-1601 721,-1607 715,-1613 709,-1613"/>
<text text-anchor="middle" x="656" y="-1601.8" font-family="Arial" font-size="9.00" fill="#ffffff">S01: PointBudgetResample</text>
<text text-anchor="middle" x="656" y="-1591.8" font-family="Arial" font-size="9.00" fill="#ffffff">Max: 8192 points</text>
<text text-anchor="middle" x="656" y="-1581.8" font-family="Arial" font-size="9.00" fill="#ffffff">(Closed&#45;form)</text>
</g>
<!-- CAN_LIDAR&#45;&gt;S01 -->
<g id="edge68" class="edge">
<title>CAN_LIDAR&#45;&gt;S01</title>
<path fill="none" stroke="#00ff00" stroke-width="3" d="M1062.27,-1739.97C979.02,-1710.26 807.45,-1649.04 716.18,-1616.47"/>
<polygon fill="#00ff00" stroke="#00ff00" stroke-width="3" points="717.13,-1613.1 706.53,-1613.03 714.78,-1619.69 717.13,-1613.1"/>
<text text-anchor="middle" x="1020" y="-1699.8" font-family="Times,serif" font-size="14.00">PointCloud2</text>
</g>
<!-- CAN_IMU&#45;&gt;CAN_DEAD -->
<!-- IMU_BUF -->
<g id="node23" class="node">
<title>IMU_BUF</title>
<path fill="#1e3e1e" stroke="#66aa66" d="M1323.5,-1489C1323.5,-1489 1210.5,-1489 1210.5,-1489 1204.5,-1489 1198.5,-1483 1198.5,-1477 1198.5,-1477 1198.5,-1453 1198.5,-1453 1198.5,-1447 1204.5,-1441 1210.5,-1441 1210.5,-1441 1323.5,-1441 1323.5,-1441 1329.5,-1441 1335.5,-1447 1335.5,-1453 1335.5,-1453 1335.5,-1477 1335.5,-1477 1335.5,-1483 1329.5,-1489 1323.5,-1489"/>
<text text-anchor="middle" x="1267" y="-1477.8" font-family="Arial" font-size="9.00" fill="#ffffff">IMU Buffer</text>
<text text-anchor="middle" x="1267" y="-1467.8" font-family="Arial" font-size="9.00" fill="#ffffff">(stamp, gyro, accel)</text>
<text text-anchor="middle" x="1267" y="-1457.8" font-family="Arial" font-size="9.00" fill="#ffffff">Max: 200 msgs</text>
<text text-anchor="middle" x="1267" y="-1447.8" font-family="Arial" font-size="9.00" fill="#ffffff">Used for: Deskew + Evidence</text>
</g>
<!-- CAN_IMU&#45;&gt;IMU_BUF -->
<g id="edge69" class="edge">
<title>CAN_IMU&#45;&gt;IMU_BUF</title>
<path fill="none" stroke="#00ff00" stroke-width="3" d="M1274.52,-1739.67C1273.23,-1692.48 1269.61,-1561.09 1267.91,-1499.13"/>
<polygon fill="#00ff00" stroke="#00ff00" stroke-width="3" points="1271.41,-1499.01 1267.64,-1489.11 1264.41,-1499.2 1271.41,-1499.01"/>
</g>
<!-- WIRING -->
<g id="node50" class="node">
<title>WIRING</title>
<path fill="#2d004d" stroke="#aa00aa" d="M1802.5,-464C1802.5,-464 1721.5,-464 1721.5,-464 1715.5,-464 1709.5,-458 1709.5,-452 1709.5,-452 1709.5,-438 1709.5,-438 1709.5,-432 1715.5,-426 1721.5,-426 1721.5,-426 1802.5,-426 1802.5,-426 1808.5,-426 1814.5,-432 1814.5,-438 1814.5,-438 1814.5,-452 1814.5,-452 1814.5,-458 1808.5,-464 1802.5,-464"/>
<text text-anchor="middle" x="1762" y="-452.8" font-family="Arial" font-size="9.00" fill="#ffffff">wiring_auditor</text>
<text text-anchor="middle" x="1762" y="-442.8" font-family="Arial" font-size="9.00" fill="#ffffff">End&#45;of&#45;Run Summary</text>
<text text-anchor="middle" x="1762" y="-432.8" font-family="Arial" font-size="9.00" fill="#ffffff">(JSON)</text>
</g>
<!-- CAN_DEAD&#45;&gt;WIRING -->
<g id="edge94" class="edge">
<title>CAN_DEAD&#45;&gt;WIRING</title>
<path fill="none" stroke="#aa00aa" stroke-width="2" d="M1537.15,-1739.97C1554.61,-1698.38 1598,-1595 1598,-1595 1598,-1595 1598,-1595 1598,-704 1598,-704 1292,-642 1292,-642 1292,-642 1242,-634 1242,-634 1242,-634 1242,-540 1242,-540 1242,-540 1560.92,-482.35 1699.24,-457.34"/>
<polygon fill="#aa00aa" stroke="#aa00aa" stroke-width="2" points="1700.06,-460.75 1709.28,-455.53 1698.81,-453.87 1700.06,-460.75"/>
</g>
<!-- ST_BELIEF -->
<g id="node18" class="node">
<title>ST_BELIEF</title>
<path fill="#1e1e2e" stroke="#6666aa" d="M1391,-724C1391,-724 1315,-724 1315,-724 1309,-724 1303,-718 1303,-712 1303,-712 1303,-698 1303,-698 1303,-692 1309,-686 1315,-686 1315,-686 1391,-686 1391,-686 1397,-686 1403,-692 1403,-698 1403,-698 1403,-712 1403,-712 1403,-718 1397,-724 1391,-724"/>
<text text-anchor="middle" x="1353" y="-712.8" font-family="Arial" font-size="9.00" fill="#ffffff">BeliefGaussianInfo</text>
<text text-anchor="middle" x="1353" y="-702.8" font-family="Arial" font-size="9.00" fill="#ffffff">22D × 8 Hypotheses</text>
<text text-anchor="middle" x="1353" y="-692.8" font-family="Arial" font-size="9.00" fill="#ffffff">(Info form: L, h)</text>
</g>
<!-- ST_MAP -->
<g id="node19" class="node">
<title>ST_MAP</title>
<path fill="#1e1e2e" stroke="#6666aa" d="M845,-724C845,-724 765,-724 765,-724 759,-724 753,-718 753,-712 753,-712 753,-698 753,-698 753,-692 759,-686 765,-686 765,-686 845,-686 845,-686 851,-686 857,-692 857,-698 857,-698 857,-712 857,-712 857,-718 851,-724 845,-724"/>
<text text-anchor="middle" x="805" y="-712.8" font-family="Arial" font-size="9.00" fill="#ffffff">MapBinStats</text>
<text text-anchor="middle" x="805" y="-702.8" font-family="Arial" font-size="9.00" fill="#ffffff">48 Bins</text>
<text text-anchor="middle" x="805" y="-692.8" font-family="Arial" font-size="9.00" fill="#ffffff">(S_dir, N_dir, μ_dir, κ)</text>
</g>
<!-- ST_BELIEF&#45;&gt;ST_MAP -->
<!-- S02 -->
<g id="node25" class="node">
<title>S02</title>
<path fill="#2a4a2a" stroke="#00ff00" d="M706.5,-1484C706.5,-1484 619.5,-1484 619.5,-1484 613.5,-1484 607.5,-1478 607.5,-1472 607.5,-1472 607.5,-1458 607.5,-1458 607.5,-1452 613.5,-1446 619.5,-1446 619.5,-1446 706.5,-1446 706.5,-1446 712.5,-1446 718.5,-1452 718.5,-1458 718.5,-1458 718.5,-1472 718.5,-1472 718.5,-1478 712.5,-1484 706.5,-1484"/>
<text text-anchor="middle" x="663" y="-1472.8" font-family="Arial" font-size="9.00" fill="#ffffff">S02: PredictDiffusion</text>
<text text-anchor="middle" x="663" y="-1462.8" font-family="Arial" font-size="9.00" fill="#ffffff">Uses: Q, dt, belief_prev</text>
<text text-anchor="middle" x="663" y="-1452.8" font-family="Arial" font-size="9.00" fill="#ffffff">(Closed&#45;form)</text>
</g>
<!-- ST_BELIEF&#45;&gt;S02 -->
<g id="edge73" class="edge">
<title>ST_BELIEF&#45;&gt;S02</title>
<path fill="none" stroke="#6666aa" stroke-width="2" stroke-dasharray="5,2" d="M1335.51,-724.03C1316.56,-743.58 1289,-772 1289,-772 1289,-772 1237,-780 1237,-780 1237,-780 1072,-816 1072,-816 1072,-816 995,-1091 995,-1091 995,-1326 995,-1326 995,-1326 995,-1326 818,-1412 818,-1412 818,-1412 769.2,-1428.37 726.37,-1442.74"/>
<polygon fill="#6666aa" stroke="#6666aa" stroke-width="2" points="725.14,-1439.46 716.78,-1445.96 727.37,-1446.1 725.14,-1439.46"/>
<text text-anchor="middle" x="1034.5" y="-1088.3" font-family="Times,serif" font-size="14.00">belief_prev</text>
</g>
<!-- OUT_STATE -->
<g id="node42" class="node">
<title>OUT_STATE</title>
<path fill="#003366" stroke="#4488ff" d="M1497.5,-586C1497.5,-586 1420.5,-586 1420.5,-586 1414.5,-586 1408.5,-580 1408.5,-574 1408.5,-574 1408.5,-560 1408.5,-560 1408.5,-554 1414.5,-548 1420.5,-548 1420.5,-548 1497.5,-548 1497.5,-548 1503.5,-548 1509.5,-554 1509.5,-560 1509.5,-560 1509.5,-574 1509.5,-574 1509.5,-580 1503.5,-586 1497.5,-586"/>
<text text-anchor="middle" x="1459" y="-574.8" font-family="Arial" font-size="9.00" fill="#ffffff">/gc/state</text>
<text text-anchor="middle" x="1459" y="-564.8" font-family="Arial" font-size="9.00" fill="#ffffff">nav_msgs/Odometry</text>
<text text-anchor="middle" x="1459" y="-554.8" font-family="Arial" font-size="9.00" fill="#ffffff">(6×6 covariance)</text>
</g>
<!-- ST_BELIEF&#45;&gt;OUT_STATE -->
<g id="edge86" class="edge">
<title>ST_BELIEF&#45;&gt;OUT_STATE</title>
<path fill="none" stroke="#4488ff" stroke-width="3" d="M1358.6,-685.73C1364.2,-667.44 1372,-642 1372,-642 1372,-642 1394,-634 1394,-634 1394,-634 1415.82,-611.85 1434.17,-593.21"/>
<polygon fill="#4488ff" stroke="#4488ff" stroke-width="3" points="1436.72,-595.62 1441.24,-586.03 1431.73,-590.7 1436.72,-595.62"/>
</g>
<!-- OUT_TRAJ -->
<g id="node43" class="node">
<title>OUT_TRAJ</title>
<path fill="#003366" stroke="#4488ff" d="M1635,-585C1635,-585 1579,-585 1579,-585 1573,-585 1567,-579 1567,-573 1567,-573 1567,-561 1567,-561 1567,-555 1573,-549 1579,-549 1579,-549 1635,-549 1635,-549 1641,-549 1647,-555 1647,-561 1647,-561 1647,-573 1647,-573 1647,-579 1641,-585 1635,-585"/>
<text text-anchor="middle" x="1607" y="-569.8" font-family="Arial" font-size="9.00" fill="#ffffff">/gc/trajectory</text>
<text text-anchor="middle" x="1607" y="-559.8" font-family="Arial" font-size="9.00" fill="#ffffff">nav_msgs/Path</text>
</g>
<!-- ST_BELIEF&#45;&gt;OUT_TRAJ -->
<g id="edge87" class="edge">
<title>ST_BELIEF&#45;&gt;OUT_TRAJ</title>
<path fill="none" stroke="#4488ff" stroke-width="3" d="M1368.91,-685.73C1384.84,-667.44 1407,-642 1407,-642 1407,-642 1524,-634 1524,-634 1524,-634 1553.29,-610.71 1577.07,-591.8"/>
<polygon fill="#4488ff" stroke="#4488ff" stroke-width="3" points="1579.54,-594.3 1585.19,-585.34 1575.19,-588.83 1579.54,-594.3"/>
</g>
<!-- OUT_STATUS -->
<g id="node44" class="node">
<title>OUT_STATUS</title>
<path fill="#003366" stroke="#4488ff" d="M1807,-586C1807,-586 1717,-586 1717,-586 1711,-586 1705,-580 1705,-574 1705,-574 1705,-560 1705,-560 1705,-554 1711,-548 1717,-548 1717,-548 1807,-548 1807,-548 1813,-548 1819,-554 1819,-560 1819,-560 1819,-574 1819,-574 1819,-580 1813,-586 1807,-586"/>
<text text-anchor="middle" x="1762" y="-574.8" font-family="Arial" font-size="9.00" fill="#ffffff">/gc/status</text>
<text text-anchor="middle" x="1762" y="-564.8" font-family="Arial" font-size="9.00" fill="#ffffff">JSON</text>
<text text-anchor="middle" x="1762" y="-554.8" font-family="Arial" font-size="9.00" fill="#ffffff">(odom/scan/imu counts)</text>
</g>
<!-- ST_BELIEF&#45;&gt;OUT_STATUS -->
<g id="edge88" class="edge">
<title>ST_BELIEF&#45;&gt;OUT_STATUS</title>
<path fill="none" stroke="#4488ff" stroke-width="2" d="M1379.22,-685.73C1405.47,-667.44 1442,-642 1442,-642 1442,-642 1662,-634 1662,-634 1662,-634 1697.37,-610.66 1726.04,-591.73"/>
<polygon fill="#4488ff" stroke="#4488ff" stroke-width="2" points="1728.26,-594.46 1734.67,-586.03 1724.4,-588.62 1728.26,-594.46"/>
</g>
<!-- OUT_MANIFEST -->
<g id="node45" class="node">
<title>OUT_MANIFEST</title>
<path fill="#003366" stroke="#4488ff" d="M1965.5,-586C1965.5,-586 1888.5,-586 1888.5,-586 1882.5,-586 1876.5,-580 1876.5,-574 1876.5,-574 1876.5,-560 1876.5,-560 1876.5,-554 1882.5,-548 1888.5,-548 1888.5,-548 1965.5,-548 1965.5,-548 1971.5,-548 1977.5,-554 1977.5,-560 1977.5,-560 1977.5,-574 1977.5,-574 1977.5,-580 1971.5,-586 1965.5,-586"/>
<text text-anchor="middle" x="1927" y="-574.8" font-family="Arial" font-size="9.00" fill="#ffffff">/gc/runtime_manifest</text>
<text text-anchor="middle" x="1927" y="-564.8" font-family="Arial" font-size="9.00" fill="#ffffff">JSON</text>
<text text-anchor="middle" x="1927" y="-554.8" font-family="Arial" font-size="9.00" fill="#ffffff">(backends, config)</text>
</g>
<!-- ST_BELIEF&#45;&gt;OUT_MANIFEST -->
<g id="edge89" class="edge">
<title>ST_BELIEF&#45;&gt;OUT_MANIFEST</title>
<path fill="none" stroke="#4488ff" stroke-width="2" d="M1389.2,-685.9C1425.8,-667.6 1477,-642 1477,-642 1477,-642 1834,-634 1834,-634 1834,-634 1866.61,-610.86 1893.21,-591.98"/>
<polygon fill="#4488ff" stroke="#4488ff" stroke-width="2" points="1895.46,-594.68 1901.59,-586.03 1891.41,-588.97 1895.46,-594.68"/>
</g>
<!-- OUT_CERT -->
<g id="node46" class="node">
<title>OUT_CERT</title>
<path fill="#003366" stroke="#4488ff" d="M2093,-586C2093,-586 2047,-586 2047,-586 2041,-586 2035,-580 2035,-574 2035,-574 2035,-560 2035,-560 2035,-554 2041,-548 2047,-548 2047,-548 2093,-548 2093,-548 2099,-548 2105,-554 2105,-560 2105,-560 2105,-574 2105,-574 2105,-580 2099,-586 2093,-586"/>
<text text-anchor="middle" x="2070" y="-574.8" font-family="Arial" font-size="9.00" fill="#ffffff">/gc/certificate</text>
<text text-anchor="middle" x="2070" y="-564.8" font-family="Arial" font-size="9.00" fill="#ffffff">JSON</text>
<text text-anchor="middle" x="2070" y="-554.8" font-family="Arial" font-size="9.00" fill="#ffffff">(CertBundle)</text>
</g>
<!-- ST_BELIEF&#45;&gt;OUT_CERT -->
<g id="edge90" class="edge">
<title>ST_BELIEF&#45;&gt;OUT_CERT</title>
<path fill="none" stroke="#4488ff" stroke-width="2" d="M1399.44,-685.96C1433.56,-672.71 1474,-657 1474,-657 1474,-657 1512,-642 1512,-642 1512,-642 1992,-634 1992,-634 1992,-634 2018.65,-611.45 2040.79,-592.72"/>
<polygon fill="#4488ff" stroke="#4488ff" stroke-width="2" points="2043.31,-595.17 2048.69,-586.03 2038.79,-589.82 2043.31,-595.17"/>
</g>
<!-- OUT_TUM -->
<g id="node47" class="node">
<title>OUT_TUM</title>
<path fill="#003366" stroke="#4488ff" d="M2249.5,-464C2249.5,-464 2192.5,-464 2192.5,-464 2186.5,-464 2180.5,-458 2180.5,-452 2180.5,-452 2180.5,-438 2180.5,-438 2180.5,-432 2186.5,-426 2192.5,-426 2192.5,-426 2249.5,-426 2249.5,-426 2255.5,-426 2261.5,-432 2261.5,-438 2261.5,-438 2261.5,-452 2261.5,-452 2261.5,-458 2255.5,-464 2249.5,-464"/>
<text text-anchor="middle" x="2221" y="-452.8" font-family="Arial" font-size="9.00" fill="#ffffff">Trajectory.txt</text>
<text text-anchor="middle" x="2221" y="-442.8" font-family="Arial" font-size="9.00" fill="#ffffff">TUM Format</text>
<text text-anchor="middle" x="2221" y="-432.8" font-family="Arial" font-size="9.00" fill="#ffffff">(For evaluation)</text>
</g>
<!-- ST_BELIEF&#45;&gt;OUT_TUM -->
<g id="edge91" class="edge">
<title>ST_BELIEF&#45;&gt;OUT_TUM</title>
<path fill="none" stroke="#4488ff" stroke-width="2" d="M1403.27,-700.01C1590.27,-685.17 2235,-634 2235,-634 2235,-634 2235,-540 2235,-540 2235,-540 2229.31,-501.82 2225.19,-474.12"/>
<polygon fill="#4488ff" stroke="#4488ff" stroke-width="2" points="2228.63,-473.5 2223.7,-464.12 2221.71,-474.53 2228.63,-473.5"/>
</g>
<!-- OUT_NPZ -->
<g id="node48" class="node">
<title>OUT_NPZ</title>
<path fill="#003366" stroke="#4488ff" d="M2208,-585C2208,-585 2146,-585 2146,-585 2140,-585 2134,-579 2134,-573 2134,-573 2134,-561 2134,-561 2134,-555 2140,-549 2146,-549 2146,-549 2208,-549 2208,-549 2214,-549 2220,-555 2220,-561 2220,-561 2220,-573 2220,-573 2220,-579 2214,-585 2208,-585"/>
<text text-anchor="middle" x="2177" y="-569.8" font-family="Arial" font-size="9.00" fill="#ffffff">Diagnostics.npz</text>
<text text-anchor="middle" x="2177" y="-559.8" font-family="Arial" font-size="9.00" fill="#ffffff">Per&#45;Scan Metrics</text>
</g>
<!-- ST_BELIEF&#45;&gt;OUT_NPZ -->
<g id="edge92" class="edge">
<title>ST_BELIEF&#45;&gt;OUT_NPZ</title>
<path fill="none" stroke="#4488ff" stroke-width="2" d="M1403.22,-688.87C1448.82,-675.13 1509,-657 1509,-657 1509,-657 1547,-642 1547,-642 1547,-642 2120,-634 2120,-634 2120,-634 2139.24,-611.72 2155.37,-593.05"/>
<polygon fill="#4488ff" stroke="#4488ff" stroke-width="2" points="2158.14,-595.2 2162.02,-585.34 2152.84,-590.62 2158.14,-595.2"/>
</g>
<!-- OUT_TF -->
<g id="node49" class="node">
<title>OUT_TF</title>
<path fill="#006633" stroke="#44ff88" d="M1367,-585C1367,-585 1269,-585 1269,-585 1263,-585 1257,-579 1257,-573 1257,-573 1257,-561 1257,-561 1257,-555 1263,-549 1269,-549 1269,-549 1367,-549 1367,-549 1373,-549 1379,-555 1379,-561 1379,-561 1379,-573 1379,-573 1379,-579 1373,-585 1367,-585"/>
<text text-anchor="middle" x="1318" y="-569.8" font-family="Arial" font-size="9.00" fill="#ffffff">TF Broadcast</text>
<text text-anchor="middle" x="1318" y="-559.8" font-family="Arial" font-size="9.00" fill="#ffffff">odom_frame → base_link</text>
</g>
<!-- ST_BELIEF&#45;&gt;OUT_TF -->
<g id="edge93" class="edge">
<title>ST_BELIEF&#45;&gt;OUT_TF</title>
<path fill="none" stroke="#44ff88" stroke-width="2" d="M1346.86,-685.96C1342.35,-672.71 1337,-657 1337,-657 1337,-657 1329.35,-621.17 1323.76,-594.97"/>
<polygon fill="#44ff88" stroke="#44ff88" stroke-width="2" points="1327.17,-594.21 1321.66,-585.16 1320.33,-595.67 1327.17,-594.21"/>
</g>
<!-- ST_PROC -->
<g id="node20" class="node">
<title>ST_PROC</title>
<path fill="#1e1e2e" stroke="#6666aa" d="M1262,-724C1262,-724 1154,-724 1154,-724 1148,-724 1142,-718 1142,-712 1142,-712 1142,-698 1142,-698 1142,-692 1148,-686 1154,-686 1154,-686 1262,-686 1262,-686 1268,-686 1274,-692 1274,-698 1274,-698 1274,-712 1274,-712 1274,-718 1268,-724 1262,-724"/>
<text text-anchor="middle" x="1208" y="-712.8" font-family="Arial" font-size="9.00" fill="#aaaaaa">ProcessNoiseIW</text>
<text text-anchor="middle" x="1208" y="-702.8" font-family="Arial" font-size="9.00" fill="#aaaaaa">Q (22×22)</text>
<text text-anchor="middle" x="1208" y="-692.8" font-family="Arial" font-size="9.00" fill="#aaaaaa">(rot, trans, vel, biases, dt, ex)</text>
</g>
<!-- ST_MAP&#45;&gt;ST_PROC -->
<!-- S05 -->
<g id="node28" class="node">
<title>S05</title>
<path fill="#2a4a2a" stroke="#00ff00" d="M449.5,-1111C449.5,-1111 330.5,-1111 330.5,-1111 324.5,-1111 318.5,-1105 318.5,-1099 318.5,-1099 318.5,-1085 318.5,-1085 318.5,-1079 324.5,-1073 330.5,-1073 330.5,-1073 449.5,-1073 449.5,-1073 455.5,-1073 461.5,-1079 461.5,-1085 461.5,-1085 461.5,-1099 461.5,-1099 461.5,-1105 455.5,-1111 449.5,-1111"/>
<text text-anchor="middle" x="390" y="-1099.8" font-family="Arial" font-size="9.00" fill="#ffffff">S05: ScanBinMomentMatch</text>
<text text-anchor="middle" x="390" y="-1089.8" font-family="Arial" font-size="9.00" fill="#ffffff">Uses: map_stats, bucket_noise</text>
<text text-anchor="middle" x="390" y="-1079.8" font-family="Arial" font-size="9.00" fill="#ffffff">(Closed&#45;form)</text>
</g>
<!-- ST_MAP&#45;&gt;S05 -->
<g id="edge74" class="edge">
<title>ST_MAP&#45;&gt;S05</title>
<path fill="none" stroke="#6666aa" stroke-width="2" stroke-dasharray="5,2" d="M788.81,-724.01C765.43,-750.02 725,-795 725,-795 725,-795 498.98,-994.71 418.24,-1066.05"/>
<polygon fill="#6666aa" stroke="#6666aa" stroke-width="2" points="415.63,-1063.69 410.45,-1072.93 420.26,-1068.93 415.63,-1063.69"/>
<text text-anchor="middle" x="621.5" y="-921.8" font-family="Times,serif" font-size="14.00">map_stats</text>
</g>
<!-- ST_MEAS -->
<g id="node21" class="node">
<title>ST_MEAS</title>
<path fill="#1e1e2e" stroke="#6666aa" d="M954,-724C954,-724 898,-724 898,-724 892,-724 886,-718 886,-712 886,-712 886,-698 886,-698 886,-692 892,-686 898,-686 898,-686 954,-686 954,-686 960,-686 966,-692 966,-698 966,-698 966,-712 966,-712 966,-718 960,-724 954,-724"/>
<text text-anchor="middle" x="926" y="-712.8" font-family="Arial" font-size="9.00" fill="#aaaaaa">MeasNoiseIW</text>
<text text-anchor="middle" x="926" y="-702.8" font-family="Arial" font-size="9.00" fill="#aaaaaa">Σg, Σa, Σlidar</text>
<text text-anchor="middle" x="926" y="-692.8" font-family="Arial" font-size="9.00" fill="#aaaaaa">(Per&#45;sensor IW)</text>
</g>
<!-- ST_PROC&#45;&gt;ST_MEAS -->
<!-- ST_PROC&#45;&gt;S02 -->
<g id="edge75" class="edge">
<title>ST_PROC&#45;&gt;S02</title>
<path fill="none" stroke="#6666aa" stroke-width="2" stroke-dasharray="5,2" d="M1185.87,-724.03C1161.88,-743.58 1127,-772 1127,-772 1127,-772 971,-780 971,-780 971,-780 835,-1073 835,-1073 835,-1073 813,-1146.5 813,-1146.5 813,-1326 813,-1326 813,-1326 813,-1326 794,-1412 794,-1412 794,-1412 753.79,-1427.96 717.93,-1442.2"/>
<polygon fill="#6666aa" stroke="#6666aa" stroke-width="2" points="716.45,-1439.02 708.45,-1445.96 719.04,-1445.52 716.45,-1439.02"/>
<text text-anchor="middle" x="897" y="-1088.3" font-family="Times,serif" font-size="14.00">Q (process noise)</text>
</g>
<!-- ST_BUCKET -->
<g id="node22" class="node">
<title>ST_BUCKET</title>
<path fill="#1e1e2e" stroke="#6666aa" d="M1100.5,-724C1100.5,-724 1035.5,-724 1035.5,-724 1029.5,-724 1023.5,-718 1023.5,-712 1023.5,-712 1023.5,-698 1023.5,-698 1023.5,-692 1029.5,-686 1035.5,-686 1035.5,-686 1100.5,-686 1100.5,-686 1106.5,-686 1112.5,-692 1112.5,-698 1112.5,-698 1112.5,-712 1112.5,-712 1112.5,-718 1106.5,-724 1100.5,-724"/>
<text text-anchor="middle" x="1068" y="-712.8" font-family="Arial" font-size="9.00" fill="#aaaaaa">BucketNoiseIW</text>
<text text-anchor="middle" x="1068" y="-702.8" font-family="Arial" font-size="9.00" fill="#aaaaaa">Per&#45;bin λ</text>
<text text-anchor="middle" x="1068" y="-692.8" font-family="Arial" font-size="9.00" fill="#aaaaaa">(LiDAR reliability)</text>
</g>
<!-- ST_MEAS&#45;&gt;ST_BUCKET -->
<!-- S09B -->
<g id="node33" class="node">
<title>S09B</title>
<path fill="#4a3a1a" stroke="#ff8800" d="M708.5,-586C708.5,-586 589.5,-586 589.5,-586 583.5,-586 577.5,-580 577.5,-574 577.5,-574 577.5,-560 577.5,-560 577.5,-554 583.5,-548 589.5,-548 589.5,-548 708.5,-548 708.5,-548 714.5,-548 720.5,-554 720.5,-560 720.5,-560 720.5,-574 720.5,-574 720.5,-580 714.5,-586 708.5,-586"/>
<text text-anchor="middle" x="649" y="-574.8" font-family="Arial" font-size="9.00" fill="#ffffff">S09b: ImuVMFGravityEvidence</text>
<text text-anchor="middle" x="649" y="-564.8" font-family="Arial" font-size="9.00" fill="#ffffff">vMF on S²</text>
<text text-anchor="middle" x="649" y="-554.8" font-family="Arial" font-size="9.00" fill="#ffffff">(Laplace approx)</text>
</g>
<!-- ST_MEAS&#45;&gt;S09B -->
<g id="edge76" class="edge">
<title>ST_MEAS&#45;&gt;S09B</title>
<path fill="none" stroke="#6666aa" stroke-width="1.5" stroke-dasharray="5,2" d="M926.77,-685.96C927.33,-672.71 928,-657 928,-657 928,-657 928,-642 928,-642 928,-642 809.32,-610.52 726.77,-588.63"/>
<polygon fill="#6666aa" stroke="#6666aa" stroke-width="1.5" points="727.46,-585.19 716.89,-586.01 725.66,-591.95 727.46,-585.19"/>
<text text-anchor="middle" x="937.5" y="-645.8" font-family="Times,serif" font-size="14.00">Σa</text>
</g>
<!-- S09C -->
<g id="node34" class="node">
<title>S09C</title>
<path fill="#2a4a6a" stroke="#00ccff" d="M507.5,-586C507.5,-586 382.5,-586 382.5,-586 376.5,-586 370.5,-580 370.5,-574 370.5,-574 370.5,-560 370.5,-560 370.5,-554 376.5,-548 382.5,-548 382.5,-548 507.5,-548 507.5,-548 513.5,-548 519.5,-554 519.5,-560 519.5,-560 519.5,-574 519.5,-574 519.5,-580 513.5,-586 507.5,-586"/>
<text text-anchor="middle" x="445" y="-574.8" font-family="Arial" font-size="9.00" fill="#ffffff">S09c: ImuGyroRotationEvidence</text>
<text text-anchor="middle" x="445" y="-564.8" font-family="Arial" font-size="9.00" fill="#ffffff">Gaussian SO(3)</text>
<text text-anchor="middle" x="445" y="-554.8" font-family="Arial" font-size="9.00" fill="#ffffff">(Closed&#45;form)</text>
</g>
<!-- ST_MEAS&#45;&gt;S09C -->
<g id="edge77" class="edge">
<title>ST_MEAS&#45;&gt;S09C</title>
<path fill="none" stroke="#6666aa" stroke-width="1.5" stroke-dasharray="5,2" d="M887.8,-685.94C878.42,-681.51 871,-678 871,-678 871,-678 753,-657 753,-657 753,-657 696,-642 696,-642 696,-642 563,-634 563,-634 563,-634 520.18,-610.05 486.13,-591"/>
<polygon fill="#6666aa" stroke="#6666aa" stroke-width="1.5" points="487.68,-587.86 477.24,-586.03 484.26,-593.97 487.68,-587.86"/>
<text text-anchor="middle" x="762.5" y="-645.8" font-family="Times,serif" font-size="14.00">Σg</text>
</g>
<!-- ST_BUCKET&#45;&gt;S05 -->
<g id="edge78" class="edge">
<title>ST_BUCKET&#45;&gt;S05</title>
<path fill="none" stroke="#6666aa" stroke-width="2" stroke-dasharray="5,2" d="M1043.95,-724.03C1017.9,-743.58 980,-772 980,-772 980,-772 918,-780 918,-780 918,-780 665,-933 665,-933 665,-933 474,-1044 474,-1044 474,-1044 452.31,-1056.13 430.98,-1068.07"/>
<polygon fill="#6666aa" stroke="#6666aa" stroke-width="2" points="429.25,-1065.03 422.24,-1072.96 432.67,-1071.13 429.25,-1065.03"/>
<text text-anchor="middle" x="737" y="-921.8" font-family="Times,serif" font-size="14.00">λ (reliability)</text>
</g>
<!-- S03 -->
<g id="node26" class="node">
<title>S03</title>
<path fill="#4a3a1a" stroke="#ff8800" d="M707,-1344C707,-1344 603,-1344 603,-1344 597,-1344 591,-1338 591,-1332 591,-1332 591,-1318 591,-1318 591,-1312 597,-1306 603,-1306 603,-1306 707,-1306 707,-1306 713,-1306 719,-1312 719,-1318 719,-1318 719,-1332 719,-1332 719,-1338 713,-1344 707,-1344"/>
<text text-anchor="middle" x="655" y="-1332.8" font-family="Arial" font-size="9.00" fill="#ffffff">S03: DeskewConstantTwist</text>
<text text-anchor="middle" x="655" y="-1322.8" font-family="Arial" font-size="9.00" fill="#ffffff">Uses: IMU preintegration</text>
<text text-anchor="middle" x="655" y="-1312.8" font-family="Arial" font-size="9.00" fill="#ffffff">(Approximate)</text>
</g>
<!-- IMU_BUF&#45;&gt;S03 -->
<g id="edge70" class="edge">
<title>IMU_BUF&#45;&gt;S03</title>
<path fill="none" stroke="#66aa66" stroke-width="2" stroke-dasharray="5,2" d="M1198.28,-1448.5C1082.26,-1422.34 848.52,-1369.64 729.02,-1342.69"/>
<polygon fill="#66aa66" stroke="#66aa66" stroke-width="2" points="729.74,-1339.27 719.22,-1340.48 728.2,-1346.09 729.74,-1339.27"/>
<text text-anchor="middle" x="1086.5" y="-1400.8" font-family="Times,serif" font-size="14.00">Preintegration</text>
</g>
<!-- IMU_BUF&#45;&gt;S09B -->
<g id="edge71" class="edge">
<title>IMU_BUF&#45;&gt;S09B</title>
<path fill="none" stroke="#66aa66" stroke-width="2" stroke-dasharray="5,2" d="M1277.04,-1440.9C1294.12,-1401.62 1327,-1326 1327,-1326 1327,-1326 1327,-1326 1327,-842 1327,-842 1290,-816 1290,-816 1290,-816 1066,-780 1066,-780 1066,-780 738,-772 738,-772 738,-772 690,-642 690,-642 690,-642 675.79,-616.36 664.1,-595.26"/>
<polygon fill="#66aa66" stroke="#66aa66" stroke-width="2" points="667.04,-593.34 659.13,-586.29 660.92,-596.74 667.04,-593.34"/>
<text text-anchor="middle" x="1354" y="-1032.8" font-family="Times,serif" font-size="14.00">Gravity</text>
</g>
<!-- IMU_BUF&#45;&gt;S09C -->
<g id="edge72" class="edge">
<title>IMU_BUF&#45;&gt;S09C</title>
<path fill="none" stroke="#66aa66" stroke-width="2" stroke-dasharray="5,2" d="M1265.49,-1440.9C1262.93,-1401.62 1258,-1326 1258,-1326 1258,-1326 1258,-1326 1258,-1091 1258,-1091 1256,-1044 1256,-1044 1256,-1044 1249,-816 1249,-816 1249,-816 571,-795 571,-795 571,-795 508,-642 508,-642 508,-642 485.38,-615.43 467.25,-594.13"/>
<polygon fill="#66aa66" stroke="#66aa66" stroke-width="2" points="469.72,-591.64 460.57,-586.29 464.39,-596.18 469.72,-591.64"/>
<text text-anchor="middle" x="1273.5" y="-1032.8" font-family="Times,serif" font-size="14.00">Gyro</text>
</g>
<!-- S01&#45;&gt;S02 -->
<g id="edge19" class="edge">
<title>S01&#45;&gt;S02</title>
<path fill="none" stroke="#00ff00" stroke-width="2" d="M657,-1574.8C658.16,-1553.77 660.08,-1518.91 661.44,-1494.32"/>
<polygon fill="#00ff00" stroke="#00ff00" stroke-width="2" points="664.94,-1494.34 662,-1484.16 657.95,-1493.95 664.94,-1494.34"/>
</g>
<!-- S02&#45;&gt;S03 -->
<g id="edge20" class="edge">
<title>S02&#45;&gt;S03</title>
<path fill="none" stroke="#00ff00" stroke-width="2" d="M661.25,-1445.81C659.81,-1430.82 658,-1412 658,-1412 658,-1412 656.86,-1379.45 655.99,-1354.4"/>
<polygon fill="#00ff00" stroke="#00ff00" stroke-width="2" points="659.48,-1354.11 655.64,-1344.24 652.49,-1354.35 659.48,-1354.11"/>
</g>
<!-- S04 -->
<g id="node27" class="node">
<title>S04</title>
<path fill="#2a4a2a" stroke="#00ff00" d="M443.5,-1222C443.5,-1222 372.5,-1222 372.5,-1222 366.5,-1222 360.5,-1216 360.5,-1210 360.5,-1210 360.5,-1196 360.5,-1196 360.5,-1190 366.5,-1184 372.5,-1184 372.5,-1184 443.5,-1184 443.5,-1184 449.5,-1184 455.5,-1190 455.5,-1196 455.5,-1196 455.5,-1210 455.5,-1210 455.5,-1216 449.5,-1222 443.5,-1222"/>
<text text-anchor="middle" x="408" y="-1210.8" font-family="Arial" font-size="9.00" fill="#ffffff">S04: BinSoftAssign</text>
<text text-anchor="middle" x="408" y="-1200.8" font-family="Arial" font-size="9.00" fill="#ffffff">τ=0.1, 48 bins</text>
<text text-anchor="middle" x="408" y="-1190.8" font-family="Arial" font-size="9.00" fill="#ffffff">(Closed&#45;form)</text>
</g>
<!-- S03&#45;&gt;S04 -->
<g id="edge32" class="edge">
<title>S03&#45;&gt;S04</title>
<path fill="none" stroke="#00ff00" stroke-width="2" d="M617.75,-1305.9C574.04,-1284.67 501.52,-1249.44 454.25,-1226.47"/>
<polygon fill="#00ff00" stroke="#00ff00" stroke-width="2" points="455.67,-1223.27 445.14,-1222.05 452.61,-1229.56 455.67,-1223.27"/>
</g>
<!-- S04&#45;&gt;S05 -->
<g id="edge21" class="edge">
<title>S04&#45;&gt;S05</title>
<path fill="none" stroke="#00ff00" stroke-width="2" d="M404.95,-1183.51C402.12,-1166.42 397.89,-1140.77 394.65,-1121.14"/>
<polygon fill="#00ff00" stroke="#00ff00" stroke-width="2" points="398.09,-1120.51 393.01,-1111.22 391.18,-1121.65 398.09,-1120.51"/>
</g>
<!-- S06 -->
<g id="node29" class="node">
<title>S06</title>
<path fill="#2a4a2a" stroke="#00ff00" d="M441.5,-1000C441.5,-1000 340.5,-1000 340.5,-1000 334.5,-1000 328.5,-994 328.5,-988 328.5,-988 328.5,-974 328.5,-974 328.5,-968 334.5,-962 340.5,-962 340.5,-962 441.5,-962 441.5,-962 447.5,-962 453.5,-968 453.5,-974 453.5,-974 453.5,-988 453.5,-988 453.5,-994 447.5,-1000 441.5,-1000"/>
<text text-anchor="middle" x="391" y="-988.8" font-family="Arial" font-size="9.00" fill="#ffffff">S06: KappaFromResultant</text>
<text text-anchor="middle" x="391" y="-978.8" font-family="Arial" font-size="9.00" fill="#ffffff">κ_map, κ_scan</text>
<text text-anchor="middle" x="391" y="-968.8" font-family="Arial" font-size="9.00" fill="#ffffff">(Closed&#45;form)</text>
</g>
<!-- S05&#45;&gt;S06 -->
<g id="edge22" class="edge">
<title>S05&#45;&gt;S06</title>
<path fill="none" stroke="#00ff00" stroke-width="2" d="M390.17,-1072.51C390.33,-1055.5 390.56,-1030.01 390.74,-1010.41"/>
<polygon fill="#00ff00" stroke="#00ff00" stroke-width="2" points="394.24,-1010.25 390.83,-1000.22 387.24,-1010.18 394.24,-1010.25"/>
</g>
<!-- S07 -->
<g id="node30" class="node">
<title>S07</title>
<path fill="#2a4a2a" stroke="#00ff00" d="M424,-862C424,-862 362,-862 362,-862 356,-862 350,-856 350,-850 350,-850 350,-836 350,-836 350,-830 356,-824 362,-824 362,-824 424,-824 424,-824 430,-824 436,-830 436,-836 436,-836 436,-850 436,-850 436,-856 430,-862 424,-862"/>
<text text-anchor="middle" x="393" y="-850.8" font-family="Arial" font-size="9.00" fill="#ffffff">S07: WahbaSVD</text>
<text text-anchor="middle" x="393" y="-840.8" font-family="Arial" font-size="9.00" fill="#ffffff">Rotation R̂</text>
<text text-anchor="middle" x="393" y="-830.8" font-family="Arial" font-size="9.00" fill="#ffffff">(Closed&#45;form)</text>
</g>
<!-- S06&#45;&gt;S07 -->
<g id="edge23" class="edge">
<title>S06&#45;&gt;S07</title>
<path fill="none" stroke="#00ff00" stroke-width="2" d="M391.27,-961.94C391.6,-939.08 392.18,-899.43 392.58,-872.48"/>
<polygon fill="#00ff00" stroke="#00ff00" stroke-width="2" points="396.09,-872.18 392.73,-862.13 389.09,-872.08 396.09,-872.18"/>
</g>
<!-- S08 -->
<g id="node31" class="node">
<title>S08</title>
<path fill="#2a4a2a" stroke="#00ff00" d="M436.5,-724C436.5,-724 357.5,-724 357.5,-724 351.5,-724 345.5,-718 345.5,-712 345.5,-712 345.5,-698 345.5,-698 345.5,-692 351.5,-686 357.5,-686 357.5,-686 436.5,-686 436.5,-686 442.5,-686 448.5,-692 448.5,-698 448.5,-698 448.5,-712 448.5,-712 448.5,-718 442.5,-724 436.5,-724"/>
<text text-anchor="middle" x="397" y="-712.8" font-family="Arial" font-size="9.00" fill="#ffffff">S08: TranslationWLS</text>
<text text-anchor="middle" x="397" y="-702.8" font-family="Arial" font-size="9.00" fill="#ffffff">Translation t̂</text>
<text text-anchor="middle" x="397" y="-692.8" font-family="Arial" font-size="9.00" fill="#ffffff">(Closed&#45;form)</text>
</g>
<!-- S07&#45;&gt;S08 -->
<g id="edge24" class="edge">
<title>S07&#45;&gt;S08</title>
<path fill="none" stroke="#00ff00" stroke-width="2" d="M393.53,-823.94C394.2,-801.08 395.37,-761.43 396.16,-734.48"/>
<polygon fill="#00ff00" stroke="#00ff00" stroke-width="2" points="399.67,-734.23 396.47,-724.13 392.67,-734.03 399.67,-734.23"/>
</g>
<!-- S08&#45;&gt;ST_BUCKET -->
<g id="edge79" class="edge">
<title>S08&#45;&gt;ST_BUCKET</title>
<path fill="none" stroke="#ffaa00" stroke-width="1.5" stroke-dasharray="1,5" d="M444.96,-724.13C496.92,-744.85 572.5,-775 572.5,-775 572.5,-775 723.5,-775 723.5,-775 723.5,-775 980,-772 980,-772 980,-772 1009.87,-749.26 1034.8,-730.28"/>
<polygon fill="#ffaa00" stroke="#ffaa00" stroke-width="1.5" points="1037.18,-732.86 1043.02,-724.02 1032.94,-727.29 1037.18,-732.86"/>
<text text-anchor="middle" x="648" y="-783.8" font-family="Times,serif" font-size="14.00">Translation residuals</text>
</g>
<!-- S08&#45;&gt;S09A -->
<g id="edge33" class="edge">
<title>S08&#45;&gt;S09A</title>
<path fill="none" stroke="#00ccff" stroke-width="2" d="M379.87,-685.94C357.41,-662.27 317.88,-620.59 292.33,-593.65"/>
<polygon fill="#00ccff" stroke="#00ccff" stroke-width="2" points="294.62,-590.98 285.2,-586.13 289.54,-595.8 294.62,-590.98"/>
</g>
<!-- S08&#45;&gt;S09B -->
<g id="edge34" class="edge">
<title>S08&#45;&gt;S09B</title>
<path fill="none" stroke="#00ccff" stroke-width="2" d="M432.28,-685.97C472.87,-665.23 534,-634 534,-634 534,-634 575.38,-610.25 608.5,-591.25"/>
<polygon fill="#00ccff" stroke="#00ccff" stroke-width="2" points="610.64,-594.05 617.58,-586.03 607.16,-587.98 610.64,-594.05"/>
</g>
<!-- S08&#45;&gt;S09C -->
<g id="edge35" class="edge">
<title>S08&#45;&gt;S09C</title>
<path fill="none" stroke="#00ccff" stroke-width="2" d="M403.37,-685.94C411.51,-662.88 425.69,-622.73 435.2,-595.76"/>
<polygon fill="#00ccff" stroke="#00ccff" stroke-width="2" points="438.57,-596.73 438.6,-586.13 431.97,-594.4 438.57,-596.73"/>
</g>
<!-- S09D -->
<g id="node35" class="node">
<title>S09D</title>
<path fill="#2a4a6a" stroke="#00ccff" d="M154,-586C154,-586 36,-586 36,-586 30,-586 24,-580 24,-574 24,-574 24,-560 24,-560 24,-554 30,-548 36,-548 36,-548 154,-548 154,-548 160,-548 166,-554 166,-560 166,-560 166,-574 166,-574 166,-580 160,-586 154,-586"/>
<text text-anchor="middle" x="95" y="-574.8" font-family="Arial" font-size="9.00" fill="#ffffff">S09d: LidarQuadraticEvidence</text>
<text text-anchor="middle" x="95" y="-564.8" font-family="Arial" font-size="9.00" fill="#ffffff">Pose information</text>
<text text-anchor="middle" x="95" y="-554.8" font-family="Arial" font-size="9.00" fill="#ffffff">(Closed&#45;form)</text>
</g>
<!-- S08&#45;&gt;S09D -->
<g id="edge36" class="edge">
<title>S08&#45;&gt;S09D</title>
<path fill="none" stroke="#00ccff" stroke-width="2" d="M345.3,-687.32C281.11,-666.62 180,-634 180,-634 180,-634 150.45,-611.06 126.2,-592.22"/>
<polygon fill="#00ccff" stroke="#00ccff" stroke-width="2" points="128.27,-589.4 118.23,-586.03 123.98,-594.93 128.27,-589.4"/>
</g>
<!-- S09A&#45;&gt;S09B -->
<!-- S10 -->
<g id="node36" class="node">
<title>S10</title>
<path fill="#4a3a1a" stroke="#ff8800" d="M641.5,-464C641.5,-464 510.5,-464 510.5,-464 504.5,-464 498.5,-458 498.5,-452 498.5,-452 498.5,-438 498.5,-438 498.5,-432 504.5,-426 510.5,-426 510.5,-426 641.5,-426 641.5,-426 647.5,-426 653.5,-432 653.5,-438 653.5,-438 653.5,-452 653.5,-452 653.5,-458 647.5,-464 641.5,-464"/>
<text text-anchor="middle" x="576" y="-452.8" font-family="Arial" font-size="9.00" fill="#ffffff">S10: FusionScaleFromCertificates</text>
<text text-anchor="middle" x="576" y="-442.8" font-family="Arial" font-size="9.00" fill="#ffffff">Excitation scaling</text>
<text text-anchor="middle" x="576" y="-432.8" font-family="Arial" font-size="9.00" fill="#ffffff">(Approximate)</text>
</g>
<!-- S09A&#45;&gt;S10 -->
<g id="edge37" class="edge">
<title>S09A&#45;&gt;S10</title>
<path fill="none" stroke="#00ccff" stroke-width="2" d="M314.44,-547.9C369.52,-526.45 461.27,-490.7 520.16,-467.75"/>
<polygon fill="#00ccff" stroke="#00ccff" stroke-width="2" points="521.64,-470.94 529.68,-464.05 519.09,-464.42 521.64,-470.94"/>
</g>
<!-- S09B&#45;&gt;ST_MEAS -->
<g id="edge80" class="edge">
<title>S09B&#45;&gt;ST_MEAS</title>
<path fill="none" stroke="#ffaa00" stroke-width="1.5" stroke-dasharray="1,5" d="M680.57,-586.01C726.15,-612.02 805,-657 805,-657 805,-657 871,-678 871,-678 871,-678 874.04,-679.44 878.7,-681.64"/>
<polygon fill="#ffaa00" stroke="#ffaa00" stroke-width="1.5" points="877.26,-684.83 887.8,-685.94 880.26,-678.5 877.26,-684.83"/>
<text text-anchor="middle" x="863" y="-645.8" font-family="Times,serif" font-size="14.00">Accel IW update</text>
</g>
<!-- S09B&#45;&gt;S09C -->
<!-- S09B&#45;&gt;S10 -->
<g id="edge38" class="edge">
<title>S09B&#45;&gt;S10</title>
<path fill="none" stroke="#00ccff" stroke-width="2" d="M637.91,-547.77C625.73,-527.75 606.05,-495.39 592.15,-472.55"/>
<polygon fill="#00ccff" stroke="#00ccff" stroke-width="2" points="595.14,-470.73 586.95,-464 589.16,-474.37 595.14,-470.73"/>
</g>
<!-- S09C&#45;&gt;ST_MEAS -->
<g id="edge81" class="edge">
<title>S09C&#45;&gt;ST_MEAS</title>
<path fill="none" stroke="#ffaa00" stroke-width="1.5" stroke-dasharray="1,5" d="M471.51,-586.01C509.79,-612.02 576,-657 576,-657 576,-657 871,-678 871,-678 871,-678 874.04,-679.44 878.7,-681.64"/>
<polygon fill="#ffaa00" stroke="#ffaa00" stroke-width="1.5" points="877.26,-684.83 887.8,-685.94 880.26,-678.5 877.26,-684.83"/>
<text text-anchor="middle" x="632.5" y="-645.8" font-family="Times,serif" font-size="14.00">Gyro IW update</text>
</g>
<!-- S09C&#45;&gt;S09D -->
<!-- S09C&#45;&gt;S10 -->
<g id="edge39" class="edge">
<title>S09C&#45;&gt;S10</title>
<path fill="none" stroke="#00ccff" stroke-width="2" d="M464.9,-547.77C487.24,-527.3 523.65,-493.96 548.66,-471.05"/>
<polygon fill="#00ccff" stroke="#00ccff" stroke-width="2" points="551.34,-473.34 556.35,-464 546.61,-468.18 551.34,-473.34"/>
</g>
<!-- S09D&#45;&gt;S10 -->
<g id="edge40" class="edge">
<title>S09D&#45;&gt;S10</title>
<path fill="none" stroke="#00ccff" stroke-width="2" d="M154.04,-547.94C168.54,-543.51 180,-540 180,-540 180,-540 373.68,-494.03 490.14,-466.38"/>
<polygon fill="#00ccff" stroke="#00ccff" stroke-width="2" points="491.19,-469.73 500.12,-464.01 489.58,-462.92 491.19,-469.73"/>
</g>
<!-- S11 -->
<g id="node37" class="node">
<title>S11</title>
<path fill="#2a4a2a" stroke="#00ff00" d="M628,-353C628,-353 534,-353 534,-353 528,-353 522,-347 522,-341 522,-341 522,-327 522,-327 522,-321 528,-315 534,-315 534,-315 628,-315 628,-315 634,-315 640,-321 640,-327 640,-327 640,-341 640,-341 640,-347 634,-353 628,-353"/>
<text text-anchor="middle" x="581" y="-341.8" font-family="Arial" font-size="9.00" fill="#ffffff">S11: InfoFusionAdditive</text>
<text text-anchor="middle" x="581" y="-331.8" font-family="Arial" font-size="9.00" fill="#ffffff">L = L_prior + L_evidence</text>
<text text-anchor="middle" x="581" y="-321.8" font-family="Arial" font-size="9.00" fill="#ffffff">(Closed&#45;form)</text>
</g>
<!-- S10&#45;&gt;S11 -->
<g id="edge28" class="edge">
<title>S10&#45;&gt;S11</title>
<path fill="none" stroke="#00ff00" stroke-width="2" d="M576.85,-425.51C577.63,-408.5 578.8,-383.01 579.7,-363.41"/>
<polygon fill="#00ff00" stroke="#00ff00" stroke-width="2" points="583.2,-363.37 580.16,-353.22 576.21,-363.05 583.2,-363.37"/>
</g>
<!-- S12 -->
<g id="node38" class="node">
<title>S12</title>
<path fill="#4a3a1a" stroke="#ff8800" d="M665.5,-256C665.5,-256 510.5,-256 510.5,-256 504.5,-256 498.5,-250 498.5,-244 498.5,-244 498.5,-230 498.5,-230 498.5,-224 504.5,-218 510.5,-218 510.5,-218 665.5,-218 665.5,-218 671.5,-218 677.5,-224 677.5,-230 677.5,-230 677.5,-244 677.5,-244 677.5,-250 671.5,-256 665.5,-256"/>
<text text-anchor="middle" x="588" y="-244.8" font-family="Arial" font-size="9.00" fill="#ffffff">S12: PoseUpdateFrobeniusRecompose</text>
<text text-anchor="middle" x="588" y="-234.8" font-family="Arial" font-size="9.00" fill="#ffffff">Frobenius correction</text>
<text text-anchor="middle" x="588" y="-224.8" font-family="Arial" font-size="9.00" fill="#ffffff">(Approximate)</text>
</g>
<!-- S11&#45;&gt;S12 -->
<g id="edge29" class="edge">
<title>S11&#45;&gt;S12</title>
<path fill="none" stroke="#00ff00" stroke-width="2" d="M582.35,-314.68C583.36,-301.01 584.75,-282.08 585.9,-266.45"/>
<polygon fill="#00ff00" stroke="#00ff00" stroke-width="2" points="589.41,-266.49 586.65,-256.26 582.43,-265.98 589.41,-266.49"/>
</g>
<!-- S12&#45;&gt;ST_PROC -->
<g id="edge82" class="edge">
<title>S12&#45;&gt;ST_PROC</title>
<path fill="none" stroke="#ffaa00" stroke-width="1.5" stroke-dasharray="1,5" d="M612.14,-256.14C708.5,-328.57 1065.72,-597.06 1175.62,-679.66"/>
<polygon fill="#ffaa00" stroke="#ffaa00" stroke-width="1.5" points="1173.6,-682.52 1183.7,-685.73 1177.8,-676.93 1173.6,-682.52"/>
<text text-anchor="middle" x="1023" y="-441.3" font-family="Times,serif" font-size="14.00">Innovation residuals</text>
</g>
<!-- S13 -->
<g id="node39" class="node">
<title>S13</title>
<path fill="#2a4a2a" stroke="#00ff00" d="M661.5,-159C661.5,-159 526.5,-159 526.5,-159 520.5,-159 514.5,-153 514.5,-147 514.5,-147 514.5,-133 514.5,-133 514.5,-127 520.5,-121 526.5,-121 526.5,-121 661.5,-121 661.5,-121 667.5,-121 673.5,-127 673.5,-133 673.5,-133 673.5,-147 673.5,-147 673.5,-153 667.5,-159 661.5,-159"/>
<text text-anchor="middle" x="594" y="-147.8" font-family="Arial" font-size="9.00" fill="#ffffff">S13: PoseCovInflationPushforward</text>
<text text-anchor="middle" x="594" y="-137.8" font-family="Arial" font-size="9.00" fill="#ffffff">Map update</text>
<text text-anchor="middle" x="594" y="-127.8" font-family="Arial" font-size="9.00" fill="#ffffff">(Closed&#45;form)</text>
</g>
<!-- S12&#45;&gt;S13 -->
<g id="edge30" class="edge">
<title>S12&#45;&gt;S13</title>
<path fill="none" stroke="#00ff00" stroke-width="2" d="M589.16,-217.68C590.02,-204.01 591.22,-185.08 592.2,-169.45"/>
<polygon fill="#00ff00" stroke="#00ff00" stroke-width="2" points="595.71,-169.46 592.85,-159.26 588.72,-169.02 595.71,-169.46"/>
</g>
<!-- S14 -->
<g id="node40" class="node">
<title>S14</title>
<path fill="#2a4a2a" stroke="#00ff00" d="M652.5,-62C652.5,-62 563.5,-62 563.5,-62 557.5,-62 551.5,-56 551.5,-50 551.5,-50 551.5,-36 551.5,-36 551.5,-30 557.5,-24 563.5,-24 563.5,-24 652.5,-24 652.5,-24 658.5,-24 664.5,-30 664.5,-36 664.5,-36 664.5,-50 664.5,-50 664.5,-56 658.5,-62 652.5,-62"/>
<text text-anchor="middle" x="608" y="-50.8" font-family="Arial" font-size="9.00" fill="#ffffff">S14: AnchorDriftUpdate</text>
<text text-anchor="middle" x="608" y="-40.8" font-family="Arial" font-size="9.00" fill="#ffffff">Anchor maintenance</text>
<text text-anchor="middle" x="608" y="-30.8" font-family="Arial" font-size="9.00" fill="#ffffff">(Closed&#45;form)</text>
</g>
<!-- S13&#45;&gt;S14 -->
<g id="edge31" class="edge">
<title>S13&#45;&gt;S14</title>
<path fill="none" stroke="#00ff00" stroke-width="2" d="M596.7,-120.68C598.71,-107.01 601.5,-88.08 603.81,-72.45"/>
<polygon fill="#00ff00" stroke="#00ff00" stroke-width="2" points="607.31,-72.66 605.31,-62.26 600.39,-71.64 607.31,-72.66"/>
</g>
<!-- S15 -->
<g id="node41" class="node">
<title>S15</title>
<path fill="#4a2a2a" stroke="#ff6666" d="M1212,-862C1212,-862 1108,-862 1108,-862 1102,-862 1096,-856 1096,-850 1096,-850 1096,-836 1096,-836 1096,-830 1102,-824 1108,-824 1108,-824 1212,-824 1212,-824 1218,-824 1224,-830 1224,-836 1224,-836 1224,-850 1224,-850 1224,-856 1218,-862 1212,-862"/>
<text text-anchor="middle" x="1160" y="-850.8" font-family="Arial" font-size="9.00" fill="#ffffff">S15: HypothesisBarycenter</text>
<text text-anchor="middle" x="1160" y="-840.8" font-family="Arial" font-size="9.00" fill="#ffffff">8 Hypotheses → 1 Belief</text>
<text text-anchor="middle" x="1160" y="-830.8" font-family="Arial" font-size="9.00" fill="#ffffff">(Closed&#45;form)</text>
</g>
<!-- S14&#45;&gt;S15 -->
<g id="edge83" class="edge">
<title>S14&#45;&gt;S15</title>
<path fill="none" stroke="#ff6666" stroke-width="3" d="M664.63,-53.85C804.3,-78.16 1154,-139 1154,-139 1154,-519 1154,-519 1154,-519 1154,-519 1191,-634 1191,-634 1191,-634 1418,-678 1418,-678 1418,-678 1418,-772 1418,-772 1418,-772 1310.4,-801.19 1234.17,-821.88"/>
<polygon fill="#ff6666" stroke="#ff6666" stroke-width="3" points="1232.84,-818.61 1224.11,-824.61 1234.67,-825.37 1232.84,-818.61"/>
<text text-anchor="middle" x="1194" y="-385.8" font-family="Times,serif" font-size="14.00">8× parallel</text>
</g>
<!-- S15&#45;&gt;ST_BELIEF -->
<g id="edge84" class="edge">
<title>S15&#45;&gt;ST_BELIEF</title>
<path fill="none" stroke="#ff6666" stroke-width="3" d="M1192.11,-823.9C1224.58,-805.6 1270,-780 1270,-780 1270,-780 1289,-772 1289,-772 1289,-772 1310.1,-750.24 1328.07,-731.71"/>
<polygon fill="#ff6666" stroke="#ff6666" stroke-width="3" points="1331.06,-733.65 1335.51,-724.03 1326.04,-728.78 1331.06,-733.65"/>
</g>
<!-- S15&#45;&gt;ST_MAP -->
<g id="edge85" class="edge">
<title>S15&#45;&gt;ST_MAP</title>
<path fill="none" stroke="#ff6666" stroke-width="2" d="M1100.27,-823.94C1085.6,-819.51 1074,-816 1074,-816 1074,-816 871,-772 871,-772 871,-772 848.85,-749.85 830.21,-731.21"/>
<polygon fill="#ff6666" stroke="#ff6666" stroke-width="2" points="832.58,-728.63 823.03,-724.03 827.63,-733.58 832.58,-728.63"/>
<text text-anchor="middle" x="1016" y="-783.8" font-family="Times,serif" font-size="14.00">Map update</text>
</g>
<!-- OUT_STATE&#45;&gt;OUT_TRAJ -->
<!-- OUT_TRAJ&#45;&gt;OUT_STATUS -->
<!-- OUT_STATUS&#45;&gt;OUT_MANIFEST -->
<!-- OUT_STATUS&#45;&gt;WIRING -->
<g id="edge95" class="edge">
<title>OUT_STATUS&#45;&gt;WIRING</title>
<path fill="none" stroke="#aa00aa" stroke-width="2" d="M1762,-547.77C1762,-528.19 1762,-496.82 1762,-474.08"/>
<polygon fill="#aa00aa" stroke="#aa00aa" stroke-width="2" points="1765.5,-474 1762,-464 1758.5,-474 1765.5,-474"/>
</g>
<!-- OUT_MANIFEST&#45;&gt;OUT_CERT -->
<!-- OUT_MANIFEST&#45;&gt;WIRING -->
<g id="edge96" class="edge">
<title>OUT_MANIFEST&#45;&gt;WIRING</title>
<path fill="none" stroke="#aa00aa" stroke-width="2" d="M1901.94,-547.77C1873.43,-527.04 1826.74,-493.09 1795.22,-470.16"/>
<polygon fill="#aa00aa" stroke="#aa00aa" stroke-width="2" points="1796.9,-467.05 1786.76,-464 1792.78,-472.72 1796.9,-467.05"/>
</g>
<!-- OUT_TUM&#45;&gt;OUT_NPZ -->
<!-- OUT_NPZ&#45;&gt;OUT_TF -->
<!-- L1 -->
<g id="node51" class="node">
<title>L1</title>
<path fill="#0f3d0f" stroke="#00ff00" d="M2386.5,-1343C2386.5,-1343 2321.5,-1343 2321.5,-1343 2315.5,-1343 2309.5,-1337 2309.5,-1331 2309.5,-1331 2309.5,-1319 2309.5,-1319 2309.5,-1313 2315.5,-1307 2321.5,-1307 2321.5,-1307 2386.5,-1307 2386.5,-1307 2392.5,-1307 2398.5,-1313 2398.5,-1319 2398.5,-1319 2398.5,-1331 2398.5,-1331 2398.5,-1337 2392.5,-1343 2386.5,-1343"/>
<text text-anchor="middle" x="2354" y="-1322.8" font-family="Arial" font-size="9.00" fill="#ffffff">Active/Processing</text>
</g>
<!-- L2 -->
<g id="node52" class="node">
<title>L2</title>
<path fill="#2a0e0e" stroke="#ff4444" stroke-dasharray="5,2" d="M2388,-1221C2388,-1221 2320,-1221 2320,-1221 2314,-1221 2308,-1215 2308,-1209 2308,-1209 2308,-1197 2308,-1197 2308,-1191 2314,-1185 2320,-1185 2320,-1185 2388,-1185 2388,-1185 2394,-1185 2400,-1191 2400,-1197 2400,-1197 2400,-1209 2400,-1209 2400,-1215 2394,-1221 2388,-1221"/>
<text text-anchor="middle" x="2354" y="-1200.8" font-family="Arial" font-size="9.00" fill="#ffcccc">Unused/Dead&#45;end</text>
</g>
<!-- L1&#45;&gt;L2 -->
<!-- L3 -->
<g id="node53" class="node">
<title>L3</title>
<path fill="#2a4a2a" stroke="#00ff00" d="M2391,-1110C2391,-1110 2317,-1110 2317,-1110 2311,-1110 2305,-1104 2305,-1098 2305,-1098 2305,-1086 2305,-1086 2305,-1080 2311,-1074 2317,-1074 2317,-1074 2391,-1074 2391,-1074 2397,-1074 2403,-1080 2403,-1086 2403,-1086 2403,-1098 2403,-1098 2403,-1104 2397,-1110 2391,-1110"/>
<text text-anchor="middle" x="2354" y="-1089.8" font-family="Arial" font-size="9.00" fill="#ffffff">Closed&#45;form (Exact)</text>
</g>
<!-- L2&#45;&gt;L3 -->
<!-- L4 -->
<g id="node54" class="node">
<title>L4</title>
<path fill="#4a3a1a" stroke="#ff8800" d="M2401,-999C2401,-999 2307,-999 2307,-999 2301,-999 2295,-993 2295,-987 2295,-987 2295,-975 2295,-975 2295,-969 2301,-963 2307,-963 2307,-963 2401,-963 2401,-963 2407,-963 2413,-969 2413,-975 2413,-975 2413,-987 2413,-987 2413,-993 2407,-999 2401,-999"/>
<text text-anchor="middle" x="2354" y="-978.8" font-family="Arial" font-size="9.00" fill="#ffffff">Approximate (Frobenius)</text>
</g>
<!-- L3&#45;&gt;L4 -->
<!-- L5 -->
<g id="node55" class="node">
<title>L5</title>
<path fill="#2a4a6a" stroke="#00ccff" d="M2378,-861C2378,-861 2330,-861 2330,-861 2324,-861 2318,-855 2318,-849 2318,-849 2318,-837 2318,-837 2318,-831 2324,-825 2330,-825 2330,-825 2378,-825 2378,-825 2384,-825 2390,-831 2390,-837 2390,-837 2390,-849 2390,-849 2390,-855 2384,-861 2378,-861"/>
<text text-anchor="middle" x="2354" y="-840.8" font-family="Arial" font-size="9.00" fill="#ffffff">Evidence</text>
</g>
<!-- L4&#45;&gt;L5 -->
<!-- L6 -->
<g id="node56" class="node">
<title>L6</title>
<path fill="#1e1e2e" stroke="#6666aa" d="M2378,-723C2378,-723 2330,-723 2330,-723 2324,-723 2318,-717 2318,-711 2318,-711 2318,-699 2318,-699 2318,-693 2324,-687 2330,-687 2330,-687 2378,-687 2378,-687 2384,-687 2390,-693 2390,-699 2390,-699 2390,-711 2390,-711 2390,-717 2384,-723 2378,-723"/>
<text text-anchor="middle" x="2354" y="-702.8" font-family="Arial" font-size="9.00" fill="#ffffff">State Storage</text>
</g>
<!-- L5&#45;&gt;L6 -->
<!-- L7 -->
<g id="node57" class="node">
<title>L7</title>
<path fill="#003366" stroke="#4488ff" d="M2378,-585C2378,-585 2330,-585 2330,-585 2324,-585 2318,-579 2318,-573 2318,-573 2318,-561 2318,-561 2318,-555 2324,-549 2330,-549 2330,-549 2378,-549 2378,-549 2384,-549 2390,-555 2390,-561 2390,-561 2390,-573 2390,-573 2390,-579 2384,-585 2378,-585"/>
<text text-anchor="middle" x="2354" y="-564.8" font-family="Arial" font-size="9.00" fill="#ffffff">Output</text>
</g>
<!-- L6&#45;&gt;L7 -->
<!-- L8 -->
<g id="node58" class="node">
<title>L8</title>
<path fill="#4a2a2a" stroke="#ff6666" d="M2387.5,-463C2387.5,-463 2320.5,-463 2320.5,-463 2314.5,-463 2308.5,-457 2308.5,-451 2308.5,-451 2308.5,-439 2308.5,-439 2308.5,-433 2314.5,-427 2320.5,-427 2320.5,-427 2387.5,-427 2387.5,-427 2393.5,-427 2399.5,-433 2399.5,-439 2399.5,-439 2399.5,-451 2399.5,-451 2399.5,-457 2393.5,-463 2387.5,-463"/>
<text text-anchor="middle" x="2354" y="-442.8" font-family="Arial" font-size="9.00" fill="#ffffff">Hypothesis Merge</text>
</g>
<!-- L7&#45;&gt;L8 -->
</g>
</svg>
